<?xml version="1.0" standalone="no"?>
<!DOCTYPE svg PUBLIC "-//W3C//DTD SVG 1.1//EN" "http://www.w3.org/Graphics/SVG/1.1/DTD/svg11.dtd" >
<svg xmlns="http://www.w3.org/2000/svg" xmlns:xlink="http://www.w3.org/1999/xlink" version="1.1">
<metadata></metadata>
<defs>
<font id="flanker_grifforegular" horiz-adv-x="500" >
<font-face units-per-em="2048" ascent="1638" descent="-410" />
<missing-glyph horiz-adv-x="700" />
<glyph unicode="&#xfb01;" horiz-adv-x="1201" d="M50 20q0 15 10.5 21t51.5 15q47 13 67.5 39.5t20.5 71.5v568q0 35 -35 35h-54q-58 0 -58 30q0 21 16 28l106 48q25 10 25 40v23q0 278 78 434q80 157 210 227q131 72 244 72q92 0 176 -57t84 -79q0 -7 -5 -20l-42 -92q-11 -21 -27 -21q-15 0 -25 10q-152 148 -279 148 q-131 0 -197.5 -94.5t-66.5 -278.5v-253q0 -35 35 -35h417q71 0 134 26q64 28 64 -27v-732q0 -45 20.5 -71.5t67.5 -39.5q41 -9 51.5 -15t10.5 -21q0 -20 -15 -20h-418q-17 0 -17 20q0 15 10.5 21t51.5 15q47 13 67.5 39.5t20.5 71.5v527q0 76 -131 76h-334q-35 0 -35 -35 v-568q0 -45 20.5 -71.5t67.5 -39.5q23 -7 68 -15q44 -8 44 -21q0 -20 -15 -20h-468q-17 0 -17 20z" />
<glyph unicode="&#xfb02;" horiz-adv-x="1201" d="M50 20q0 15 10.5 21t51.5 15q47 13 67.5 39.5t20.5 71.5v568q0 35 -35 35h-54q-58 0 -58 30q0 21 16 28l106 48q25 10 25 40v23q0 278 78 434q68 133 192.5 216t261.5 83q68 0 126 -36q59 -36 78 -35q64 28 64 -27v-1407q0 -45 20.5 -71.5t67.5 -39.5q42 -10 53 -15.5 t11 -20.5q0 -20 -17 -20h-418q-17 0 -17 20q0 15 10.5 21t51.5 15q47 13 67.5 39.5t20.5 71.5v1202q0 67 -78.5 129.5t-157.5 62.5q-131 0 -197.5 -94.5t-66.5 -278.5v-253q0 -35 35 -35h195q18 0 23 -21l13 -84q4 -25 -19 -25h-212q-35 0 -35 -35v-568q0 -45 20.5 -71.5 t67.5 -39.5q23 -7 68 -15q44 -8 44 -21q0 -20 -15 -20h-468q-17 0 -17 20z" />
<glyph unicode="&#xfb03;" horiz-adv-x="1850" d="M50 20q0 15 10.5 21t51.5 15q47 13 67.5 39.5t20.5 71.5v568q0 35 -35 35h-54q-58 0 -58 30q0 21 16 28l106 48q25 10 25 40v23q0 214 78 370q67 132 191 215.5t263 83.5q67 0 133 -26t110 -65q24 -21 48 1q67 67 168 110.5t191 43.5q103 0 172 -69q14 -14 14 -25 q0 -7 -5 -20l-42 -92q-11 -21 -27 -21q-15 0 -25 10l-59 48q-70 58 -146 58q-131 0 -197.5 -94.5t-66.5 -278.5v-253q0 -35 35 -35h417q71 0 134 26q64 28 64 -27v-732q0 -45 20.5 -71.5t67.5 -39.5q41 -9 51.5 -15t10.5 -21q0 -20 -15 -20h-418q-17 0 -17 20q0 15 10.5 21 t51.5 15q47 13 67.5 39.5t20.5 71.5v527q0 76 -131 76h-119h-3h-212q-35 0 -35 -35v-568q0 -45 20.5 -71.5t67.5 -39.5q23 -7 68 -15q44 -8 44 -21q0 -20 -15 -20h-468q-17 0 -17 20q0 15 10.5 21t51.5 15q47 13 67.5 39.5t20.5 71.5v568q0 35 -35 35h-430q-35 0 -35 -35 v-568q0 -45 20.5 -71.5t67.5 -39.5q23 -7 68 -15q44 -8 44 -21q0 -20 -15 -20h-468q-17 0 -17 20zM350 935q0 -35 35 -35h446q19 0 19 19v20q0 247 53 374q12 30 -11 54q-56 58 -129.5 94t-148.5 36q-131 0 -197.5 -94.5t-66.5 -278.5v-189z" />
<glyph unicode="&#xfb04;" horiz-adv-x="1850" d="M50 20q0 15 10.5 21t51.5 15q47 13 67.5 39.5t20.5 71.5v568q0 35 -35 35h-54q-58 0 -58 30q0 21 16 28l106 48q25 10 25 40v23q0 214 78 370q67 132 191 215.5t263 83.5q67 0 133 -26t110 -65q24 -21 48 1q67 67 168 110.5t191 43.5q68 0 126 -36q59 -36 78 -35 q64 28 64 -27v-1407q0 -45 20.5 -71.5t67.5 -39.5q42 -10 53 -15.5t11 -20.5q0 -20 -17 -20h-418q-17 0 -17 19q0 25 27 35q16 5 35 2q47 13 67.5 39.5t20.5 71.5v1202q0 67 -78.5 129.5t-157.5 62.5q-131 0 -197.5 -94.5t-66.5 -278.5v-253q0 -35 35 -35h195q18 0 23 -21 l13 -84q4 -25 -19 -25h-212q-35 0 -35 -35v-568q0 -45 20.5 -71.5t67.5 -39.5q23 -7 68 -15q44 -8 44 -21q0 -20 -15 -20h-468q-17 0 -17 20q0 15 10.5 21t51.5 15q47 13 67.5 39.5t20.5 71.5v568q0 35 -35 35h-430q-35 0 -35 -35v-568q0 -45 20.5 -71.5t67.5 -39.5 q23 -7 68 -15q44 -8 44 -21q0 -20 -15 -20h-468q-17 0 -17 20zM350 935q0 -35 35 -35h446q19 0 19 19v20q0 247 53 374q12 30 -11 54q-56 58 -129.5 94t-148.5 36q-131 0 -197.5 -94.5t-66.5 -278.5v-189z" />
<glyph horiz-adv-x="0" />
<glyph horiz-adv-x="682" />
<glyph unicode=" "  horiz-adv-x="700" />
<glyph unicode="&#x09;" horiz-adv-x="700" />
<glyph unicode="&#xa0;" horiz-adv-x="700" />
<glyph unicode="!" horiz-adv-x="499" d="M125 1401q0 59 34.5 92.5t89.5 33.5t90 -33.5t35 -92.5q0 -77 -24 -190q-76 -346 -76 -834q0 -21 -24 -21q-25 0 -25 21q0 488 -76 834q-24 113 -24 190zM149 90q0 41 29.5 70.5t70.5 29.5t70.5 -29.5t29.5 -70.5t-29.5 -70.5t-70.5 -29.5t-70.5 29.5t-29.5 70.5z" />
<glyph unicode="&#x22;" horiz-adv-x="690" d="M90 1500q0 41 29.5 70.5t70.5 29.5t70.5 -29.5t29.5 -70.5q0 -47 -24 -153.5t-53 -142.5q-6 -8 -23 -8t-23 8q-29 37 -53 143.5t-24 152.5zM400 1500q0 41 29.5 70.5t70.5 29.5t70.5 -29.5t29.5 -70.5q0 -47 -24 -153.5t-53 -142.5q-6 -8 -23 -8t-23 8q-29 37 -53 143.5 t-24 152.5z" />
<glyph unicode="#" horiz-adv-x="1304" d="M154 -50l229 638h-203v75h230l81 225h-235v75h262l194 537h75l-194 -537h325l194 537h75l-194 -537h213v-75h-240l-81 -225h245v-75h-272l-229 -638h-75l229 638h-325l-229 -638h-75zM485 663h325l81 225h-325z" />
<glyph unicode="$" horiz-adv-x="1049" d="M80 274q1 41 26.5 66.5t58.5 25.5q42 0 70.5 -38t59.5 -125q28 -83 90 -125v712l-10 7q-80 53 -131.5 102.5t-86 118.5t-34.5 149q0 119 72 209t190 125v74q0 22 29 22q31 0 31 -22v-61q34 6 71 6q54 0 97 -7v63q0 21 29 21q31 0 31 -21v-74q112 -26 181.5 -83t69.5 -127 q0 -40 -21 -63.5t-49 -23.5q-78 0 -138 133q-18 39 -43 64v-562q79 -53 129 -95q177 -151 179 -360q0 -139 -86.5 -239t-221.5 -142v-87q0 -23 -30 -23t-30 23v73q-49 -10 -101 -10q-39 0 -67 4v-67q0 -24 -31 -24q-29 0 -29 24v76q-138 28 -223 108t-82 173zM248 1255 q3 -76 35.5 -124.5t91.5 -94.5q6 -6 10 -8v412q-70 -24 -104.5 -74.5t-32.5 -110.5zM445 50q35 -9 74 -9q49 0 94 13v587l-168 110v-701zM445 985q29 -19 93 -59t75 -47v562q-47 18 -104 18q-31 0 -64 -5v-469zM673 76q74 37 120 103t48 155q4 142 -168 266v-524z" />
<glyph unicode="%" horiz-adv-x="930" d="M-5 10q0 5 3 11l889 1540q6 10 16 10t20.5 -8t10.5 -16q0 -5 -3 -11l-890 -1540q-6 -11 -16 -11t-20 8.5t-10 16.5zM11 1205q0 163 68.5 274t171.5 111q102 0 170 -111.5t68 -273.5q0 -164 -67.5 -274.5t-170.5 -110.5t-171.5 111t-68.5 274zM89 1247q0 -174 50.5 -288 t126.5 -114q74 0 116 110q29 74 29 193q0 193 -51.5 304.5t-123.5 111.5q-64 0 -105.5 -81t-41.5 -236zM451 355q0 163 68.5 274t171.5 111q102 0 170 -111.5t68 -273.5q0 -164 -67.5 -274.5t-170.5 -110.5t-171.5 111t-68.5 274zM529 397q0 -174 50.5 -288t126.5 -114 q74 0 116 110q29 74 29 193q0 193 -51.5 304.5t-123.5 111.5q-64 0 -105.5 -81t-41.5 -236z" />
<glyph unicode="&#x26;" horiz-adv-x="1600" d="M100 362q0 136 97.5 239.5t270.5 171.5q14 6 14 11t-12 15q-68 63 -103.5 127.5t-35.5 152.5q0 110 80.5 182t223.5 72q112 0 197 -70.5t85 -169.5q0 -136 -207 -264q-11 -8 -11 -15q0 -9 10 -16q97 -79 149 -136t162 -195q16 -21 29 -21t29 16q30 29 76.5 91t81.5 119 q83 134 83 192q0 29 -18.5 41t-61.5 12h-24q-20 0 -20 26q0 25 20 25h366q20 0 20 -25q0 -26 -20 -26h-30q-82 0 -120 -27t-78 -111q-93 -193 -257 -385q-10 -13 -10 -23t13 -33t31 -49t20 -29q70 -120 95 -150q46 -56 97 -56q30 0 132 48q4 3 10 3q8 0 15.5 -9.5t7.5 -21.5 q0 -11 -11 -17q-139 -88 -244 -88q-29 0 -52 5t-45 20.5t-37 29t-39 47.5t-38.5 57t-46.5 76q-13 23 -27 23q-15 0 -30 -16q-96 -100 -224 -169t-254 -69q-149 0 -254 108t-105 281zM283 380q0 -115 78 -200.5t198 -85.5q90 0 187 51t169 120q18 16 18 31q0 6 -3 10 q-65 112 -165.5 227t-193.5 189q-16 13 -34 13q-16 0 -31 -9q-109 -68 -166 -150t-57 -196zM480 1125q0 -78 30.5 -132.5t104.5 -114.5q16 -13 31 -13t37 17q39 31 69 88.5t30 117.5q0 95 -41 144.5t-119 49.5q-63 0 -102.5 -41.5t-39.5 -115.5z" />
<glyph unicode="'" d="M150 1500q0 41 29.5 70.5t70.5 29.5t70.5 -29.5t29.5 -70.5q0 -47 -24 -153.5t-53 -142.5q-6 -8 -23 -8t-23 8q-29 37 -53 143.5t-24 152.5z" />
<glyph unicode="(" horiz-adv-x="731" d="M170 650q0 443 478 1031q7 8 14 8q10 0 20.5 -8.5t10.5 -17.5q0 -7 -4 -12q-323 -442 -323 -1001q0 -557 323 -1001q4 -5 4 -12q0 -8 -10 -17t-20 -9q-8 0 -15 8q-230 277 -354 543t-124 488z" />
<glyph unicode=")" horiz-adv-x="731" d="M38 -363q0 7 4 12q323 444 323 1001q0 559 -323 1001q-4 5 -4 12q0 9 10.5 17.5t20.5 8.5q7 0 14 -8q478 -588 478 -1031q0 -222 -124 -488t-354 -543q-7 -8 -15 -8q-10 0 -20 9t-10 17z" />
<glyph unicode="*" horiz-adv-x="722" d="M30 1348q0 16 9.5 23t20.5 5l196 -28q4 -1 11 -1q30 0 36 35l33 195q4 21 28 21q20 0 23 -20l33 -196q6 -35 35 -35q7 0 11 1l197 28q12 2 20.5 -5.5t8.5 -23.5q0 -11 -14 -19l-174 -92q-24 -14 -24 -32q0 -11 7 -24l87 -178q4 -10 4 -13q0 -8 -9.5 -16t-18.5 -8 q-7 0 -17 8l-142 138q-16 15 -29 15q-12 0 -28 -14l-144 -139q-8 -8 -17 -8t-18.5 8t-9.5 16q0 6 4 13l87 178q7 16 7 24q0 18 -24 32l-174 92q-15 8 -15 20z" />
<glyph unicode="+" horiz-adv-x="1150" d="M100 698v75h437v437h75v-437h438v-75h-438v-438h-75v438h-437z" />
<glyph unicode="," d="M146 -274q0 12 12 22q142 112 142 200q0 23 -12.5 32.5t-40.5 9.5q-41 0 -70.5 29.5t-29.5 70.5q0 42 30 71t78 29q50 0 87.5 -42t37.5 -122q0 -140 -141 -276q-48 -46 -78 -48q-15 0 -15 24z" />
<glyph unicode="-" horiz-adv-x="650" d="M50 593v125q0 25 23 28l501 62q26 3 26 -23v-124q0 -27 -26 -30l-495 -61q-29 -3 -29 23z" />
<glyph unicode="." d="M150 90q0 41 29.5 70.5t70.5 29.5t70.5 -29.5t29.5 -70.5t-29.5 -70.5t-70.5 -29.5t-70.5 29.5t-29.5 70.5z" />
<glyph unicode="/" horiz-adv-x="939" d="M0 10q0 5 3 11l889 1540q6 10 16 10t20.5 -8t10.5 -16q0 -5 -3 -11l-890 -1540q-6 -11 -16 -11t-20 8.5t-10 16.5z" />
<glyph unicode="0" horiz-adv-x="1000" d="M23 750q0 214 61.5 390t171.5 278t246 102q135 0 244.5 -102.5t171 -279t61.5 -388.5q0 -214 -60.5 -389.5t-170.5 -278t-246 -102.5t-246.5 102t-171.5 278t-61 390zM179 835q0 -229 46 -413.5t127 -287.5t180 -103q148 0 232 219q59 152 59 386q0 197 -29 357.5 t-78 263t-112 157.5t-132 55q-128 0 -210.5 -162t-82.5 -472z" />
<glyph unicode="1" horiz-adv-x="1000" d="M300 20q0 15 10.5 21t51.5 15q47 13 67.5 39.5t20.5 71.5v1112q0 39 -44 56l-85 25q-18 4 -18 25t16 28l217 98q64 28 64 -27v-1317q0 -45 20.5 -71.5t67.5 -39.5q41 -9 51.5 -15t10.5 -21q0 -20 -15 -20h-418q-17 0 -17 20z" />
<glyph unicode="2" horiz-adv-x="1000" d="M64 23q0 18 20 48l339 500q137 203 183 330.5t46 249.5q0 107 -68 181.5t-171 74.5q-102 0 -238 -98q-7 -5 -12 -5q-9 0 -18 10.5t-9 19.5t9 15q235 171 360 171q123 0 210 -90.5t87 -210.5q0 -145 -61 -263q-35 -68 -243 -376l-287 -423q-7 -11 -7 -19t17 -8h335 q110 0 167 28t82 89q9 22 16 47t10 35t10 17t20 7q22 0 22 -18q0 -2 -1 -5v-3l-55 -298q-6 -29 -38 -29h-691q-34 0 -34 23z" />
<glyph unicode="3" horiz-adv-x="1000" d="M96 102q0 72 82 72q48 0 113 -58q63 -57 171 -57q109 0 192 85t83 224q0 66 -29 135t-76 124t-111.5 90t-129.5 35q-20 0 -33 -7t-16 -7q-9 0 -18.5 10t-9.5 19q0 8 7 14q69 68 187 173q114 102 114 217q0 100 -58.5 159t-157.5 59q-72 0 -111.5 -16t-90.5 -63 q-13 -13 -25 -13q-10 0 -18 6.5t-8 15.5q0 7 14 28.5t42.5 51t65.5 56.5t90.5 46t109.5 19q128 0 210 -82.5t82 -229.5q0 -151 -255 -317q-5 -5 -5 -10q0 -8 9 -8q93 -13 179 -74t139.5 -154.5t53.5 -192.5q0 -181 -155 -327q-154 -145 -366 -145q-136 0 -203.5 37t-67.5 85 z" />
<glyph unicode="4" horiz-adv-x="1000" d="M0 340q0 12 9 25l766 1136q13 19 26 19q18 0 18 -22v-1010q0 -35 35 -35h136q19 0 23 -21l13 -84q4 -25 -19 -25h-153q-35 0 -35 -35v-318q0 -20 -18 -20h-111q-21 0 -21 20v318q0 35 -35 35h-614q-20 0 -20 17zM148 464.5q5 -11.5 25 -11.5h461q35 0 35 35v682 q0 30 -14.5 35.5t-32.5 -20.5l-468 -695q-11 -14 -6 -25.5z" />
<glyph unicode="5" horiz-adv-x="1000" d="M102 54q0 33 22.5 51.5t60.5 18.5q41 0 92 -25q54 -24 145 -24q87 0 152.5 56.5t96.5 140t31 176.5q0 95 -43 183t-116 156.5t-158 120.5t-180 89q-15 6 -19.5 19t4.5 28l253 459q18 21 37 18l284 -47q18 -2 18 -12q0 -33 -76 -122q-10 -10 -20 -9l-217 44q-25 4 -36 -8 l-110 -228q-17 -29 6 -40q92 -34 178.5 -90t159.5 -129t117.5 -166t44.5 -189q0 -153 -81.5 -279.5t-212.5 -196t-278 -69.5q-85 0 -120 18t-35 56z" />
<glyph unicode="6" horiz-adv-x="1000" d="M59 513q0 239 179 518t489 539q8 4 11 4q7 0 14.5 -10t7.5 -20t-9 -16q-358 -338 -451 -618q-7 -14 -7 -24q0 -14 12 -14q6 0 14 5q74 43 166 43q183 0 299.5 -136t116.5 -351q0 -192 -120 -322.5t-293 -130.5q-85 0 -162 37t-136.5 103.5t-95 168.5t-35.5 224zM217 454 q0 -179 77 -299t191 -120q112 0 189.5 121t77.5 299q0 176 -77.5 296.5t-189.5 120.5q-113 0 -190.5 -120t-77.5 -298z" />
<glyph unicode="7" horiz-adv-x="1000" d="M69 1165v4l56 302q5 29 38 29h758q27 0 27 -29q0 -52 -17 -90l-637 -1429q-12 -27 -33 -27h-80q-30 0 -30 19q0 8 7 24l608 1361q5 10 5 21q0 20 -21 20h-354q-137 0 -199 -50.5t-79 -154.5q-3 -18 -27 -18q-22 0 -22 18z" />
<glyph unicode="8" horiz-adv-x="1000" d="M118 369q0 154 90 253q92 100 176 141q4 4 4 8q0 6 -7 12q-40 25 -77.5 60.5t-72.5 84t-56 112t-21 131.5q0 154 103 251.5t253 97.5q144 0 246.5 -99.5t102.5 -239.5q0 -191 -235 -353q-5 -3 -5 -8q0 -7 11 -15q61 -46 102 -85.5t79 -91.5t56.5 -114t18.5 -136 q0 -98 -50.5 -189t-143 -150t-203.5 -59q-155 0 -263 108.5t-108 280.5zM240 381q0 -158 76 -254.5t192 -96.5q107 0 179 90.5t72 192.5q0 129 -109 248q-111 121 -193 172q-8 5 -18 5q-15 0 -67 -52q-132 -129 -132 -305zM271 1221q0 -123 90 -208q159 -152 205 -152 q14 0 46 25q135 123 135 297q0 125 -63.5 206t-175.5 81q-104 0 -170.5 -72t-66.5 -177z" />
<glyph unicode="9" horiz-adv-x="1000" d="M57 1068q0 194 119.5 323t293.5 129q85 0 162 -37t136.5 -103.5t94.5 -168t35 -222.5q0 -240 -178.5 -519t-488.5 -538q-5 -4 -11 -4q-7 0 -14.5 10t-7.5 20t9 16q352 333 441 600q7 14 7 24q0 14 -12 14q-6 0 -14 -5q-73 -43 -150 -43q-177 0 -299.5 145.5t-122.5 358.5 zM206 1047q0 -177 77.5 -297t189.5 -120q113 0 190.5 120.5t77.5 297.5t-77.5 298t-190.5 121q-112 0 -189.5 -121t-77.5 -299z" />
<glyph unicode=":" d="M150 180q0 41 29.5 70.5t70.5 29.5t70.5 -29.5t29.5 -70.5t-29.5 -70.5t-70.5 -29.5t-70.5 29.5t-29.5 70.5zM150 720q0 41 29.5 70.5t70.5 29.5t70.5 -29.5t29.5 -70.5t-29.5 -70.5t-70.5 -29.5t-70.5 29.5t-29.5 70.5z" />
<glyph unicode=";" horiz-adv-x="550" d="M149 -274q0 12 12 22q142 112 142 200q0 23 -12.5 32.5t-40.5 9.5q-41 0 -70.5 29.5t-29.5 70.5q0 42 30 71t78 29q46 0 85 -39q40 -39 40 -125q0 -46 -27 -118q-27 -73 -114 -158q-52 -48 -78 -48q-15 0 -15 24zM150 720q0 41 29.5 70.5t70.5 29.5t70.5 -29.5 t29.5 -70.5t-29.5 -70.5t-70.5 -29.5t-70.5 29.5t-29.5 70.5z" />
<glyph unicode="&#x3c;" horiz-adv-x="1060" d="M100 696v80l822 475l38 -65l-779 -450l779 -450l-37 -65z" />
<glyph unicode="=" horiz-adv-x="1150" d="M100 544v75h950v-75h-950zM100 844v75h950v-75h-950z" />
<glyph unicode="&#x3e;" horiz-adv-x="1060" d="M100 286l779 450l-779 450l38 65l822 -475v-80l-823 -475z" />
<glyph unicode="?" horiz-adv-x="750" d="M79 1432q0 95 188 95q178 0 306 -122t128 -308q0 -124 -82 -233t-203 -162q-114 -50 -145 -76t-31 -69q0 -46 32 -110l28 -57q3 -6 3 -10q0 -8 -10.5 -17t-23.5 -9t-19 13l-32 65q-61 123 -61 190q0 76 31 119t115 75q56 22 94 38.5t90 47t84 61t55 75.5t23 95 q0 110 -82.5 166t-211.5 56q-31 0 -87 -2t-83 -2q-106 0 -106 81zM188 90q0 41 29.5 70.5t70.5 29.5t70.5 -29.5t29.5 -70.5t-29.5 -70.5t-70.5 -29.5t-70.5 29.5t-29.5 70.5z" />
<glyph unicode="@" horiz-adv-x="1886" d="M69 424q0 199 73.5 380t198 312t297.5 208.5t365 77.5q328 0 527 -197.5t199 -526.5q0 -189 -73 -350t-198.5 -254.5t-273.5 -93.5q-64 0 -91.5 31t-27.5 95q0 56 17 120q3 12 3 21q0 12 -6 12t-18 -16q-97 -137 -175 -200t-183 -63q-101 0 -170 94.5t-69 233.5 q0 166 75 307t204 223t281 82q39 0 135 -16t140 -16h35q37 0 32 -23l-140 -671q-3 -21 -3 -27q0 -62 58 -62q105 0 194.5 81.5t141.5 222t52 305.5q0 180 -86 326t-238.5 228.5t-341.5 82.5q-166 0 -320.5 -75.5t-268.5 -203t-182.5 -304.5t-68.5 -370q0 -162 61 -310 t164.5 -255t247 -170.5t300.5 -63.5q178 0 333.5 60.5t284 190t204.5 317.5q4 12 16 12t22 -8t10 -16q0 -2 -2 -8q-98 -271 -337 -440t-536 -169q-175 0 -335 70t-275 189t-183.5 283t-68.5 344zM624 350q0 -112 46.5 -179t111.5 -67q59 0 120 44t105 101t82 127 q39 71 50 124l51 248q1 5 1 14q0 46 -59.5 75t-141.5 29q-99 0 -183.5 -69t-133.5 -188t-49 -259z" />
<glyph unicode="A" horiz-adv-x="1750" d="M0 25q0 25 20 25h49q119 0 187 150l544 1221q6 12 6 27q0 17 -8 38q-12 34 28 34h130q42 0 57 -40l466 -1280q54 -150 130 -150h85q20 0 20 -25t-20 -25h-529q-20 0 -20 25t20 25h80q50 0 50 46q0 23 -12 57l-142 391q-18 50 -69 50h-481q-49 0 -72 -50l-172 -386 q-17 -37 -17 -62q0 -46 60 -46h80q20 0 20 -25t-20 -25h-450q-20 0 -20 25zM596 719q-7 -15 -7 -26q0 -24 36 -24h420q37 0 37 27q0 10 -5 23l-194 533q-12 35 -24 35q-10 0 -25 -35z" />
<glyph unicode="B" horiz-adv-x="1410" d="M100 25q0 25 20 25h30q150 0 150 150v1100q0 150 -150 150h-30q-20 0 -20 25t20 25q140 0 278 7t265 7q118 0 218.5 -18.5t186.5 -58t135.5 -111t49.5 -169.5q0 -181 -205 -283q-10 -5 -10 -12t10 -11q31 -12 65 -31t75 -54t72.5 -76.5t53 -101t21.5 -125.5 q0 -150 -89.5 -265.5t-245.5 -166.5q-131 -43 -354 -43q-56 0 -183 6t-276 6h-67q-20 0 -20 25zM500 260q0 -92 61 -144.5t164 -52.5q173 0 291.5 111t118.5 266q0 168 -123.5 276t-312.5 108h-149q-50 0 -50 -50v-514zM500 949q0 -50 50 -50h228q120 0 197.5 74t77.5 178 q0 133 -89.5 211t-261.5 78q-59 0 -141 -6q-61 -6 -61 -70v-415z" />
<glyph unicode="C" horiz-adv-x="1550" d="M50 751q0 220 108 396t299 274.5t430 98.5q142 0 299 -58q87 -34 139 -34q8 0 28.5 8t27.5 8q23 1 25 -19l23 -321q3 -21 -23 -23t-30 23q-5 28 -11 39q-79 148 -205.5 225t-279.5 77q-143 0 -262.5 -53.5t-199.5 -144.5t-124 -213t-44 -258q0 -196 81 -360t230 -262.5 t336 -98.5q141 0 267 56q126 57 188 134q62 79 95 152q8 17 31 8q22 -10 15 -28l-146 -327q-6 -14 -20 -11q-32 9 -62 9q-44 0 -164 -35q-119 -33 -214 -33q-174 0 -327.5 55.5t-266 154.5t-178 244.5t-65.5 316.5z" />
<glyph unicode="D" horiz-adv-x="1802" d="M100 25q0 25 20 25h30q150 0 150 150v1100q0 150 -150 150h-30q-20 0 -20 25t20 25q191 0 402.5 10t364.5 10q360 0 598 -218q237 -218 237 -551q0 -335 -236 -553t-599 -218q-134 0 -352.5 10t-414.5 10q-20 0 -20 25zM500 228q0 -46 15.5 -78t40.5 -50.5t71 -28.5 t92 -13t117 -3q420 0 599 303q92 157 92 344q0 200 -80.5 365.5t-219.5 264.5q-162 115 -438 115q-81 0 -239 -19q-50 -6 -50 -56v-1144z" />
<glyph unicode="E" horiz-adv-x="1350" d="M100 25q0 25 20 25h80q150 0 150 150v1100q0 150 -150 150h-30q-20 0 -20 25t20 25h977q32 0 35 -29l26 -302q1 -10 -5 -15.5t-18 -6.5q-25 -1 -26 18q-18 114 -30 151q-40 109 -222 109h-307q-50 0 -50 -50v-510q0 -50 50 -50h300q150 0 150 150v30q0 20 25 20t25 -20 v-435q0 -20 -25 -20t-25 20v30q0 150 -150 150h-300q-50 0 -50 -50v-465q0 -150 150 -150h289q181 0 222 107q12 40 30 153q1 19 26 18q12 -1 18 -6.5t5 -15.5l-26 -302q-3 -29 -35 -29h-1109q-20 0 -20 25z" />
<glyph unicode="F" horiz-adv-x="1300" d="M100 25q0 25 20 25h80q150 0 150 150v1100q0 150 -150 150h-30q-20 0 -20 25t20 25h977q32 0 35 -29l26 -302q1 -10 -5 -15.5t-18 -6.5q-25 -1 -26 18q-18 114 -30 151q-40 109 -222 109h-307q-50 0 -50 -50v-510q0 -50 50 -50h300q150 0 150 150v30q0 20 25 20t25 -20 v-435q0 -20 -25 -20t-25 20v30q0 150 -150 150h-300q-50 0 -50 -50v-490q0 -150 150 -150h80q20 0 20 -25t-20 -25h-660q-20 0 -20 25z" />
<glyph unicode="G" horiz-adv-x="1650" d="M50 751q0 169 64.5 313t176 243.5t266 156t330.5 56.5q147 0 299 -58q88 -34 139 -34q7 0 28 8t28 8q24 0 25 -19l23 -321v-4q0 -19 -23 -19q-16 0 -23.5 10.5t-11 28.5t-6.5 23q-79 148 -205.5 225t-279.5 77q-140 0 -259.5 -52.5t-200 -143t-125.5 -213t-45 -260.5 q0 -196 81 -360t230 -262.5t336 -98.5q122 0 260 51q43 16 43 57v368q0 150 -150 150h-80q-20 0 -20 25t20 25h610q20 0 20 -25t-20 -25h-30q-150 0 -150 -150v-372q0 -31 -33 -51q-89 -48 -230 -88t-250 -40q-174 0 -327.5 55.5t-266 154.5t-178 244.5t-65.5 316.5z" />
<glyph unicode="H" horiz-adv-x="1700" d="M100 25q0 25 20 25h30q150 0 150 150v1100q0 150 -150 150h-30q-20 0 -20 25t20 25h610q20 0 20 -25t-20 -25h-80q-150 0 -150 -150v-435q0 -50 50 -50h600q50 0 50 50v435q0 150 -150 150h-80q-20 0 -20 25t20 25h610q20 0 20 -25t-20 -25h-30q-150 0 -150 -150v-1100 q0 -150 150 -150h30q20 0 20 -25t-20 -25h-610q-20 0 -20 25t20 25h80q150 0 150 150v490q0 50 -50 50h-600q-50 0 -50 -50v-490q0 -150 150 -150h80q20 0 20 -25t-20 -25h-610q-20 0 -20 25z" />
<glyph unicode="I" horiz-adv-x="900" d="M100 25q0 25 20 25h80q150 0 150 150v1100q0 150 -150 150h-80q-20 0 -20 25t20 25h660q20 0 20 -25t-20 -25h-80q-150 0 -150 -150v-1100q0 -150 150 -150h80q20 0 20 -25t-20 -25h-660q-20 0 -20 25z" />
<glyph unicode="J" horiz-adv-x="850" d="M-154 -364q0 39 32 62t71 23q61 0 113 -49q53 -49 105 -49q96 0 139 100q44 100 44 260v1317q0 150 -150 150h-80q-20 0 -20 25t20 25h660q20 0 20 -25t-20 -25h-80q-150 0 -150 -150v-1111q0 -306 -149 -487q-148 -181 -355 -181q-49 0 -92 10.5t-75.5 38t-32.5 66.5z " />
<glyph unicode="K" horiz-adv-x="1728" d="M100 25q0 25 20 25h30q150 0 150 150v1100q0 150 -150 150h-30q-20 0 -20 25t20 25h560q20 0 20 -25t-20 -25h-30q-150 0 -150 -150v-477q0 -50 50 -50q56 0 150 79q58 49 115 107t112.5 128.5t90 146.5t34.5 141q0 75 -149 75h-43q-18 0 -18 26q0 24 19 24h646 q19 0 19 -24q0 -26 -19 -26q-144 0 -224 -39t-142 -147q-162 -278 -332 -434q-13 -12 -13 -25q0 -17 18 -29q237 -170 501 -568q54 -82 117.5 -119.5t177.5 -37.5h89q19 0 19 -26q0 -25 -19 -25h-772q-21 0 -21 25q0 26 19 26h84q51 0 79.5 16.5t28.5 43.5q0 56 -89 176.5 t-193 226t-160 140.5q-69 44 -125 44q-50 0 -50 -50v-448q0 -150 150 -150h30q20 0 20 -25t-20 -25h-560q-20 0 -20 25z" />
<glyph unicode="L" horiz-adv-x="1350" d="M100 25q0 25 20 25h30q150 0 150 150v1100q0 150 -150 150h-30q-20 0 -20 25t20 25h610q20 0 20 -25t-20 -25h-80q-150 0 -150 -150v-1075q0 -150 150 -150h289q164 0 283 119q86 86 126 145q11 16 20 16q11 0 21 -8.5t10 -16.5q0 -6 -4 -12l-167 -289q-17 -29 -49 -29 h-1059q-20 0 -20 25z" />
<glyph unicode="M" horiz-adv-x="2050" d="M50 25q0 26 20 26h30q75 0 111 35t40 114l55 1065l1 19q1 19 1 27q0 63 -37.5 101t-111.5 38h-31q-20 0 -20 26q0 24 20 24h314q18 0 25 -15l531 -1192q8 -18 23 -18q13 0 22 19l531 1191q8 15 25 15h314q19 0 19 -24q0 -26 -19 -26h-31q-74 0 -112 -39t-38 -104v-18.5 v-22.5l1 -10l57 -1056q5 -79 39.5 -114t110.5 -35h31q20 0 20 -26q0 -25 -20 -25h-516q-20 0 -20 25q0 26 19 26h37q99 0 99 92q0 8 -1 33.5t-1 26.5l-50 992q0 13 -4 13q-2 0 -7 -11l-524 -1176q-9 -21 -32 -21h-40q-21 0 -32 23l-507 1138q-6 14 -11 14q-4 0 -6 -20 l-50 -971q0 -2 -1 -18.5t-1 -21.5q0 -93 100 -93h38q19 0 19 -26q0 -25 -20 -25h-390q-20 0 -20 25z" />
<glyph unicode="N" horiz-adv-x="2000" d="M100 25q0 25 20 25h30q150 0 150 150v1100q0 150 -150 150h-30q-20 0 -20 25t20 25h243q37 0 55 -19l1133 -1186q19 -21 31 -21q18 0 18 46v980q0 150 -150 150h-30q-20 0 -20 25t20 25h460q20 0 20 -25t-20 -25h-30q-150 0 -150 -150v-1250q0 -50 -50 -50t-86 38 l-1114 1178q-22 22 -32 22q-18 0 -18 -47v-991q0 -150 150 -150h30q20 0 20 -25t-20 -25h-460q-20 0 -20 25z" />
<glyph unicode="O" horiz-adv-x="1772" d="M50 751q0 333 237 551q238 218 600 218q360 0 598 -218q237 -218 237 -551q0 -335 -236 -553t-599 -218q-361 0 -600 218q-237 216 -237 553zM250 775q0 -203 85 -368t235 -258.5t334 -93.5q177 0 318 86.5t220.5 239.5t79.5 345q0 202 -84.5 366.5t-234.5 258.5t-334 94 q-176 0 -317.5 -86.5t-221.5 -240t-80 -343.5z" />
<glyph unicode="P" horiz-adv-x="1250" d="M100 25q0 25 20 25h30q150 0 150 150v1100q0 150 -150 150h-30q-20 0 -20 25t20 25q40 0 136.5 -1.5t138.5 -1.5q64 0 133 1.5t85 1.5q168 0 275 -28t188 -102q124 -114 124 -295q0 -175 -148.5 -284.5t-384.5 -109.5q-40 0 -78.5 3t-44.5 3q-44 0 -44 -46v-441 q0 -150 150 -150h30q20 0 20 -25t-20 -25h-560q-20 0 -20 25zM500 824q0 -61 134 -61q167 0 266.5 81t99.5 235q0 172 -85.5 259t-262.5 87h-102q-50 0 -50 -50v-551z" />
<glyph unicode="Q" horiz-adv-x="1772" d="M50 751q0 333 237 551q238 218 600 218q360 0 598 -218q237 -218 237 -551q0 -335 -236 -553q-143 -132 -307 -176q-17 -5 -17 -18q0 -10 6 -20q51 -87 119.5 -156t138 -110t136 -62.5t123.5 -21.5q88 0 159 28q8 4 15 4q14 0 14 -21q0 -23 -27 -39q-34 -20 -99.5 -33 t-141.5 -13q-169 0 -336 86t-303 260q-18 23 -39 38.5t-46.5 23.5t-40 11t-41.5 5t-29 2q-286 32 -483 212q-237 218 -237 553zM250 775q0 -203 85 -368t235 -258.5t334 -93.5q177 0 318 86.5t220.5 239.5t79.5 345q0 202 -84.5 366.5t-234.5 258.5t-334 94 q-176 0 -317.5 -86.5t-221.5 -240t-80 -343.5z" />
<glyph unicode="R" horiz-adv-x="1550" d="M100 25q0 25 20 25h30q150 0 150 150v1100q0 150 -150 150h-30q-20 0 -20 25t20 25q66 0 165 -1.5t132 -1.5q58 0 128 1t93 1q158 0 259.5 -25.5t176.5 -92.5q126 -114 126 -319q0 -206 -209 -331q-18 -11 -18 -29q0 -7 5 -19q50 -115 147 -253t226 -259 q135 -128 210 -149q14 -5 14 -22q0 -20 -32 -20h-47q-87 0 -180 49q-155 81 -283 230t-253 375q-12 22 -44 22q-2 0 -35.5 -1.5t-52.5 -1.5q-30 0 -61 1t-35 1q-52 0 -52 -47v-408q0 -150 150 -150h30q20 0 20 -25t-20 -25h-560q-20 0 -20 25zM500 791q0 -40 28 -49t120 -9 q151 0 251.5 93t100.5 228q0 164 -103 266.5t-245 102.5q-30 0 -102 -2q-50 -2 -50 -50v-580z" />
<glyph unicode="S" horiz-adv-x="1050" d="M86 375q0 24 30 24q17 0 20 -17q16 -115 127 -221q110 -106 268 -106q147 0 214.5 67t67.5 179q0 107 -78 194q-76 84 -320 264q-149 109 -213 198t-64 212q0 150 111.5 250.5t275.5 100.5q104 0 263 -54q20 -7 44 -7q6 0 17.5 1.5t15.5 1.5q21 0 24 -21l40 -285 q0 -24 -30 -24q-17 0 -20 17q-7 47 -32.5 97t-67 95.5t-107 74.5t-141.5 29q-118 0 -179 -59.5t-61 -146.5t68.5 -169.5t254.5 -211.5q50 -35 75.5 -53t67.5 -50t64 -53t52 -52t45.5 -58t31.5 -61.5t22.5 -71t6.5 -77.5q0 -183 -126 -292.5t-326 -109.5q-103 0 -285 63 q-15 5 -36 5q-8 0 -30 -4.5t-28 -4.5q-14 0 -17 19z" />
<glyph unicode="T" horiz-adv-x="1500" d="M50 1194l35 333q2 17 21 17q31 0 33 -14q5 -30 65 -30h1092q60 0 65 30q2 14 33 14q19 0 21 -17l35 -333q0 -23 -27 -23q-22 0 -23 17l-8 80q-7 70 -44.5 101t-117.5 31h-330q-50 0 -50 -50v-1150q0 -150 150 -150h80q20 0 20 -25t-20 -25h-660q-20 0 -20 25t20 25h80 q150 0 150 150v1150q0 50 -50 50h-330q-80 0 -117.5 -31t-44.5 -101l-8 -80q-2 -17 -27 -17q-23 0 -23 23z" />
<glyph unicode="U" horiz-adv-x="2000" d="M100 1475q0 25 20 25h580q20 0 20 -25t-20 -25h-50q-150 0 -150 -150v-720q0 -114 48.5 -204t131 -145.5t186 -84.5t219.5 -29q110 0 207 31t171.5 88.5t118 146.5t43.5 197v720q0 150 -150 150h-30q-20 0 -20 25t20 25h435q20 0 20 -25t-20 -25h-30q-150 0 -150 -150 v-719q0 -183 -93.5 -321.5t-246 -209t-337.5 -70.5q-116 0 -222.5 24t-198 74t-158.5 120.5t-105.5 168.5t-38.5 214v719q0 150 -150 150h-30q-20 0 -20 25z" />
<glyph unicode="V" horiz-adv-x="1900" d="M50 1475q0 25 20 25h527q20 0 20 -25t-20 -25h-80q-41 0 -41 -44q0 -37 30 -106l483 -1139q10 -26 22 -26q11 0 23 26l482 1139q29 70 29 106q0 44 -40 44h-80q-20 0 -20 25t20 25h405q20 0 20 -25t-20 -25h-54q-87 0 -150 -150l-544 -1280q-18 -40 -59 -40h-132 q-43 0 -59 40l-544 1280q-64 150 -138 150h-80q-20 0 -20 25z" />
<glyph unicode="W" horiz-adv-x="2550" d="M50 1475q0 25 20 25h527q20 0 20 -25t-20 -25h-80q-41 0 -41 -44q0 -37 30 -106l483 -1139q12 -26 22 -26q11 0 23 26l177 418q13 31 13 59q0 26 -13 59l-256 603q-65 150 -138 150h-80q-20 0 -20 25t20 25h527q20 0 20 -25t-20 -25h-80q-41 0 -41 -44q0 -37 30 -106 l146 -346q12 -29 25 -29q12 0 25 29l147 346q29 69 29 106q0 44 -40 44h-80q-20 0 -20 25t20 25h400q20 0 20 -25t-20 -25h-49q-87 0 -150 -150l-202 -475q-13 -29 -13 -59q0 -28 13 -59l232 -546q12 -26 22 -26q11 0 23 26l482 1139q29 69 29 106q0 44 -40 44h-80 q-20 0 -20 25t20 25h388q20 0 20 -25t-20 -25h-37q-87 0 -150 -150l-544 -1280q-18 -40 -59 -40h-132q-43 0 -59 40l-184 431q-12 29 -25 29t-25 -29l-183 -431q-18 -40 -59 -40h-132q-43 0 -59 40l-544 1280q-64 150 -138 150h-80q-20 0 -20 25z" />
<glyph unicode="X" horiz-adv-x="1500" d="M100 25q0 25 20 25h80q71 0 108 34t77 116l234 488q7 14 7 33q0 21 -7 35l-265 544q-40 82 -77.5 116t-108.5 34h-30q-20 0 -20 25t20 25h520q20 0 20 -25t-20 -25h-80q-52 0 -52 -32q0 -12 10 -34l186 -381q13 -26 25 -26q13 0 26 26l192 385q8 16 8 30q0 32 -53 32h-80 q-20 0 -20 25t20 25h410q20 0 20 -25t-20 -25h-30q-70 0 -107 -33.5t-78 -116.5l-216 -432q-8 -15 -8 -32q0 -15 8 -31l294 -605q41 -84 78 -117t109 -33h80q20 0 20 -25t-20 -25h-571q-20 0 -20 25t20 25h80q52 0 52 31q0 14 -10 34l-215 444q-11 22 -25 22q-13 0 -23 -22 l-208 -434q-13 -28 -13 -42q0 -33 50 -33h80q20 0 20 -25t-20 -25h-457q-20 0 -20 25z" />
<glyph unicode="Y" horiz-adv-x="1423" d="M50 1475q0 25 20 25h527q20 0 20 -25t-20 -25h-80q-41 0 -41 -40q0 -38 34 -106l236 -485q14 -29 28 -29t28 29l233 481q38 78 38 114t-37 36h-88q-20 0 -20 25t20 25h400q20 0 20 -25t-20 -25h-41q-85 0 -158 -150l-293 -602q-26 -52 -26 -98v-400q0 -150 150 -150h80 q20 0 20 -25t-20 -25h-660q-20 0 -20 25t20 25h80q150 0 150 150v350q0 50 -25 100l-317 650q-73 150 -147 150h-71q-20 0 -20 25z" />
<glyph unicode="Z" horiz-adv-x="1500" d="M101 24q0 13 17 38l948 1305q17 23 17 37q0 21 -35 21h-356q-164 0 -283 -119q-45 -45 -80 -87.5t-47 -58t-19 -15.5q-11 0 -21 9t-10 16q0 4 3 10l168 291q17 29 49 29h872q51 0 51 -28q0 -20 -24 -53l-940 -1292q-14 -20 -14 -31q0 -21 42 -21h510q164 0 283 119 q45 45 80 87.5t47 58t19 15.5q11 0 21 -9t10 -16q0 -6 -3 -10l-168 -291q-17 -29 -49 -29h-1040q-48 0 -48 24z" />
<glyph unicode="[" horiz-adv-x="740" d="M205 -307v2003q0 35 35 35h427q35 0 35 -35v-5q0 -35 -35 -35h-236q-73 0 -73 -73v-1777q0 -73 73 -73h259q35 0 35 -35v-5q0 -35 -35 -35h-450q-35 0 -35 35z" />
<glyph unicode="\" horiz-adv-x="1033" d="M200 1500h75l558 -1550h-75z" />
<glyph unicode="]" horiz-adv-x="740" d="M15 -302q0 35 35 35h259q73 0 73 73v1777q0 73 -73 73h-236q-35 0 -35 35v5q0 35 35 35h427q35 0 35 -35v-2003q0 -35 -35 -35h-450q-35 0 -35 35v5z" />
<glyph unicode="^" horiz-adv-x="1229" d="M104 595l442 824h135l443 -824h-142l-368 662l-368 -662h-142z" />
<glyph unicode="_" horiz-adv-x="1138" d="M0 -154h1138v-102h-1138v102z" />
<glyph unicode="`" horiz-adv-x="451" d="M50 1918q0 23 17.5 38.5t43.5 15.5q65 0 97 -61l141 -273q3 -4 3 -9q0 -8 -16 -8q-17 0 -30 13l-228 224q-28 26 -28 60z" />
<glyph unicode="a" horiz-adv-x="850" d="M70 174q0 67 51 109.5t178 98.5l194 85q39 17 39 79v121q0 83 -42 133.5t-113 50.5q-43 0 -84.5 -32t-41.5 -91q0 -10 1.5 -19.5t2.5 -15t1 -6.5q0 -11 -6 -14q-112 -54 -142 -54q-16 0 -16 34q0 83 80.5 158t161.5 96q54 13 102 13q46 0 87.5 -15.5t78 -47.5t58.5 -90 t22 -134v-439q0 -39 20.5 -59t57.5 -20q23 0 58 17l35 17q7 0 7 -19q0 -16 -4 -23.5t-16 -16.5l-96 -70q-56 -40 -105 -40q-82 0 -102 127q-1 9 -5 9q-3 0 -6 -3l-123 -91q-57 -42 -131 -42q-80 0 -141 54t-61 140zM227 199q0 -50 35.5 -83.5t96.5 -33.5q42 0 95 38l52 38 q26 18 26 48v190q0 22 -18 22q-6 0 -14 -3l-185 -81q-41 -18 -64.5 -54t-23.5 -81z" />
<glyph unicode="b" horiz-adv-x="1100" d="M53 1475q0 21 16 28l217 98q22 10 37 10q27 0 27 -37v-747q0 -25 17 -25q9 0 22 7l134 70q79 41 155 41q80 0 147 -38.5t109.5 -101.5t66 -138.5t23.5 -152.5q0 -227 -131.5 -368t-359.5 -141q-106 0 -285 57q-48 15 -48 64v1268q0 44 -44 56l-85 25q-18 4 -18 25z M350 270q0 -94 73.5 -153t167.5 -59q86 0 152.5 55t98.5 136.5t32 172.5q0 103 -32 185.5t-102.5 135.5t-170.5 53q-56 0 -107 -22l-92 -40q-20 -9 -20 -32v-432z" />
<glyph unicode="c" horiz-adv-x="949" d="M75 441q0 208 133 343.5t344 135.5q125 0 206 -35.5t81 -97.5q0 -27 -21.5 -43t-50.5 -16t-59 21.5t-53 47.5t-56.5 47.5t-67.5 21.5q-62 0 -113.5 -22.5t-85 -59t-57 -84.5t-33.5 -98t-10 -101q0 -165 90 -278t234 -113q178 0 295 116q6 6 14 6t17.5 -9.5t9.5 -17.5 t-6 -14q-97 -105 -187.5 -158t-203.5 -53q-125 0 -221.5 63t-147.5 167.5t-51 230.5z" />
<glyph unicode="d" horiz-adv-x="1099" d="M75 413q0 225 134 366t357 141q77 0 154 -19q3 -1 8 -1q21 0 21 27v442q0 42 -44 56l-85 25q-18 4 -18 25t16 28l217 98q23 10 35 10q29 0 29 -37v-1389q0 -72 51 -72q18 0 39 10l32 14q6 2 8 2q8 0 16 -9.5t8 -22.5q0 -11 -12 -16l-263 -115q-12 -4 -14 -4q-15 0 -15 21 v80q0 25 -17 25q-6 0 -22 -7l-134 -70q-79 -41 -155 -41q-80 0 -147.5 39t-109.5 101.5t-65.5 138.5t-23.5 154zM225 480q0 -103 31.5 -186t102.5 -136.5t171 -53.5q56 0 107 22l92 40q20 9 20 32v432q0 92 -73 152t-168 60q-87 0 -153 -54t-98 -135t-32 -173z" />
<glyph unicode="e" horiz-adv-x="974" d="M75 430q0 131 56 242.5t160 179.5t233 68q143 0 231.5 -72t119.5 -206q2 -8 13 -18t11 -23q0 -25 -20 -25h-613q-19 0 -28 -12q-13 -17 -13 -98q0 -145 93.5 -250.5t230.5 -105.5q99 0 167 25t135 91q6 6 13 6q9 0 18.5 -9.5t9.5 -18.5q0 -7 -6 -13 q-89 -104 -182.5 -157.5t-208.5 -53.5q-121 0 -218 61.5t-149.5 164t-52.5 224.5zM261 647q0 -21 27 -21h387q26 0 26 25q0 92 -54.5 150.5t-147.5 58.5q-58 0 -106.5 -26.5t-75.5 -63.5t-41.5 -70t-14.5 -53z" />
<glyph unicode="f" horiz-adv-x="650" d="M50 20q0 14 8 19t39 13q9 3 15 4q88 23 88 111v568q0 35 -35 35h-54q-58 0 -58 30q0 21 16 28l106 48q25 10 25 40v23q0 281 78 434q50 100 128.5 169.5t160.5 99.5t165 30q43 0 87.5 -17.5t71.5 -39.5t27 -37q0 -7 -5 -20l-42 -92q-11 -21 -27 -21q-15 0 -25 10l-69 56 q-62 50 -136 50q-131 0 -197.5 -94.5t-66.5 -278.5v-253q0 -35 35 -35h195q20 0 23 -21l13 -84q0 -2 0.5 -4.5t0.5 -3.5q0 -17 -20 -17h-212q-35 0 -35 -35v-568q0 -46 20.5 -72t67.5 -39q7 -2 39 -8.5t52.5 -13t20.5 -14.5q0 -20 -15 -20h-468q-17 0 -17 20z" />
<glyph unicode="g" horiz-adv-x="1150" d="M60 -476q0 64 54.5 140.5t136.5 142.5q19 15 19 32q0 14 -21 22q-71 25 -116 66t-45 88q0 51 49.5 97.5t136.5 99.5q13 8 13 21t-13 22q-79 52 -121.5 129.5t-42.5 170.5q0 155 113 260t297 105q168 0 280 -91q81 11 200 11h84q20 0 23 -21q3 -22 6 -40l4.5 -27t2 -15 t1 -7.5t0.5 -2.5q0 -17 -20 -17h-206q35 -72 35 -155q0 -155 -113.5 -260t-296.5 -105q-24 0 -66 6.5t-62 6.5q-51 0 -103.5 -34.5t-52.5 -62.5q0 -50 87.5 -83.5t261.5 -34.5q213 -2 302.5 -19t143.5 -70q72 -72 72 -193q0 -37 -19.5 -87t-69 -110.5t-120.5 -110.5 t-187.5 -84t-256.5 -34q-183 0 -286.5 72.5t-103.5 171.5zM212 -415q0 -86 93 -158.5t234 -72.5q111 0 212 38t163.5 102.5t62.5 137.5q0 71 -45 126.5t-120 61.5q-165 13 -375 13q-91 0 -191 -132q-34 -45 -34 -116zM267 584q0 -140 84.5 -240.5t191.5 -100.5 q99 0 164 82.5t65 200.5q0 141 -84 241t-191 100q-100 0 -165 -82.5t-65 -200.5z" />
<glyph unicode="h" horiz-adv-x="1164" d="M50 20q0 14 8 19t39 13q9 3 15 4q88 23 88 111v1202q0 44 -44 56l-85 25q-18 4 -18 25t16 28l217 98q21 9 35 9q29 0 29 -36v-747q0 -24 17 -24q11 0 22 6l134 70q78 41 155 41q94 0 160 -56t96 -145t30 -203q0 -120 -4 -227.5t-4 -129.5q0 -62 29.5 -82.5t120.5 -35.5 q44 -8 44 -21q0 -20 -15 -20h-468q-17 0 -17 20q0 14 8 19t39 13q9 3 15 4q47 12 67 39.5t24 78.5q11 167 11 302q0 163 -55.5 243.5t-189.5 80.5q-56 0 -107 -22l-92 -42q-20 -9 -20 -32v-537q0 -88 88 -111q6 -1 15 -4q31 -8 39 -13t8 -19q0 -20 -15 -20h-418 q-17 0 -17 20z" />
<glyph unicode="i" horiz-adv-x="550" d="M50 20q0 14 8 19t39 13q9 3 15 4q88 23 88 111v527q0 44 -44 56l-85 25q-18 5 -18 25q0 21 16 28l217 98q21 9 35 9q29 0 29 -36v-732q0 -88 88 -111q6 -1 15 -4q31 -8 39 -13t8 -19q0 -20 -15 -20h-418q-17 0 -17 20zM169 1300q0 44 30.5 74.5t74.5 30.5t74.5 -30.5 t30.5 -74.5t-30.5 -74.5t-74.5 -30.5t-74.5 30.5t-30.5 74.5z" />
<glyph unicode="j" horiz-adv-x="550" d="M-268 -591q0 36 26 61.5t61 25.5q16 0 29.5 -4t28.5 -15t21.5 -16.5t24 -23.5t19.5 -20q42 -43 115 -43q143 0 143 273v1047q0 44 -44 56l-85 25q-18 5 -18 25q0 21 16 28l217 98q21 9 35 9q29 0 29 -36v-1069q0 -137 -33 -244t-91.5 -173t-134.5 -99.5t-166 -33.5 q-78 0 -135.5 39.5t-57.5 89.5zM169 1300q0 44 30.5 74.5t74.5 30.5t74.5 -30.5t30.5 -74.5t-30.5 -74.5t-74.5 -30.5t-74.5 30.5t-30.5 74.5z" />
<glyph unicode="k" horiz-adv-x="1100" d="M50 20q0 14 8 19t39 13q9 3 15 4q88 23 88 111v1202q0 44 -44 56l-85 25q-18 4 -18 25t16 28l217 98q21 9 35 9q29 0 29 -36v-941q0 -23 12.5 -36t30.5 -13q15 0 83.5 38t135 94.5t66.5 94.5q0 12 -66 31.5t-66 34.5q0 23 25 23h407q25 0 25 -23q0 -21 -47 -27 q-42 -5 -67.5 -10.5t-63 -23.5t-64.5 -48q-32 -35 -120 -104t-126 -87q-12 -5 -12 -18q0 -8 10 -20l398 -427q29 -31 127 -56q42 -10 52 -16t10 -20q0 -20 -15 -20h-468q-17 0 -17 20q0 15 10 20.5t52 15.5q40 9 40 32q0 27 -31 61l-307 328q-3 3 -7 3q-7 0 -7 -12v-301 q0 -88 88 -111q6 -1 15 -4q31 -8 39 -13t8 -19q0 -20 -15 -20h-418q-17 0 -17 20z" />
<glyph unicode="l" horiz-adv-x="550" d="M50 20q0 15 10 20.5t52 15.5q47 12 67.5 39t20.5 72v1202q0 42 -44 56l-85 25q-18 4 -18 25t16 28l217 98q23 10 35 10q29 0 29 -37v-1407q0 -45 20.5 -72t67.5 -39q42 -10 52 -16t10 -20q0 -20 -15 -20h-418q-17 0 -17 20z" />
<glyph unicode="m" horiz-adv-x="1715" d="M50 20q0 15 10 20.5t52 15.5q47 12 67.5 39t20.5 72v527q0 42 -44 56l-85 25q-18 5 -18 25q0 21 16 28l217 98q23 10 35 10q29 0 29 -37v-72q0 -25 17 -25q9 0 22 7l134 70q79 41 155 41q135 0 182 -96q14 -27 33 -27q23 0 47 12l134 70q79 41 155 41q75 0 132 -37.5 t89.5 -101.5t48.5 -140t16 -161q0 -51 -5.5 -177.5t-5.5 -133.5q0 -60 34 -86.5t119 -41.5q44 -8 44 -21q0 -20 -15 -20h-468q-17 0 -17 20q0 15 10 20.5t52 15.5q47 12 67 39t24 79q11 156 11 243q0 88 -12.5 155t-40 120t-76 80.5t-116.5 27.5q-56 0 -107 -22l-92 -42 q-21 -10 -21 -26q0 -2 11.5 -74t11.5 -108v-361q0 -45 20.5 -72t67.5 -39q42 -10 52 -16t10 -20q0 -20 -15 -20h-418q-17 0 -17 20q0 15 10 20.5t52 15.5q47 12 67.5 39t20.5 72v250q0 172 -38 278q-37 105 -166 105q-56 0 -107 -22l-92 -42q-20 -9 -20 -32v-537 q0 -45 20.5 -72t67.5 -39q42 -10 52 -16t10 -20q0 -20 -15 -20h-418q-17 0 -17 20z" />
<glyph unicode="n" horiz-adv-x="1164" d="M50 20q0 14 8 19t39 13q9 3 15 4q88 23 88 111v527q0 44 -44 56l-85 25q-18 5 -18 25q0 21 16 28l217 98q21 9 35 9q29 0 29 -36v-72q0 -24 17 -24q11 0 22 6l134 70q78 41 155 41q94 0 160 -56t96 -145t30 -203q0 -104 -4 -212.5t-4 -144.5q0 -62 29.5 -82.5 t120.5 -35.5q44 -8 44 -21q0 -20 -15 -20h-468q-17 0 -17 20q0 15 10 20.5t52 15.5q47 12 67 39t24 79q11 167 11 302q0 163 -55.5 243.5t-189.5 80.5q-56 0 -107 -22l-92 -42q-20 -9 -20 -32v-537q0 -88 88 -111q6 -1 15 -4q31 -8 39 -13t8 -19q0 -20 -15 -20h-418 q-17 0 -17 20z" />
<glyph unicode="o" horiz-adv-x="1106" d="M75 450q0 199 132.5 334.5t345.5 135.5t345.5 -135.5t132.5 -334.5t-133 -334.5t-345 -135.5t-345 135.5t-133 334.5zM231 497q0 -95 31 -182t81 -148t115 -97t132 -36q125 0 205 107.5t80 260.5q0 95 -31 182.5t-81 148.5t-115 97t-132 36q-125 0 -205 -107.5 t-80 -261.5z" />
<glyph unicode="p" horiz-adv-x="1099" d="M50 -680q0 15 10 20.5t52 15.5q47 12 67.5 39t20.5 72v1227q0 42 -44 56l-85 25q-18 5 -18 25q0 21 16 28l217 98q23 10 35 10q29 0 29 -37v-72q0 -25 17 -25q9 0 22 7l134 70q79 41 155 41q100 0 180.5 -62t123 -160t42.5 -209q0 -228 -134.5 -368.5t-356.5 -140.5 q-55 0 -161 31q-4 1 -6 1q-16 0 -16 -30v-515q0 -59 33 -84.5t123 -40.5q44 -8 44 -22q0 -20 -15 -20h-468q-17 0 -17 20zM350 270q0 -93 72 -152.5t169 -59.5q111 0 197 101t86 263q0 170 -83 272t-222 102q-56 0 -107 -22l-92 -40q-20 -9 -20 -32v-432z" />
<glyph unicode="q" horiz-adv-x="1099" d="M75 412q0 106 33 198t93.5 161t154.5 109t210 40q106 0 206 -54q22 -12 35 -12q11 0 19 9l42 52q9 11 19 11q12 0 12 -11v-1448q0 -45 20.5 -72t67.5 -39q42 -10 52 -15.5t10 -20.5q0 -20 -17 -20h-468q-15 0 -15 20q0 8 20.5 15t52.5 13t39 8q47 14 67.5 40t20.5 71v601 q0 25 -17 25q-9 0 -22 -7l-82 -48q-99 -58 -192 -58q-86 0 -157 39t-114 102.5t-66.5 138.5t-23.5 152zM225 466q0 -96 33 -176.5t104 -133t168 -52.5q56 0 107 22l92 40q20 9 20 32v432q0 92 -73 152t-168 60q-91 0 -157 -56t-96 -139t-30 -181z" />
<glyph unicode="r" horiz-adv-x="750" d="M50 20q0 15 10 20.5t52 15.5q47 12 67.5 39t20.5 72v527q0 44 -44 56l-85 25q-18 5 -18 25q0 21 16 28l217 98q23 10 35 10q29 0 29 -37v-111q0 -18 11 -18q8 0 15 10q41 61 77 102q56 61 101 61q43 0 100 -25q80 -34 80 -50q0 -18 -27 -67q-26 -50 -43 -50q-14 0 -63 25 q-50 26 -90 26q-58 0 -111 -60q-50 -57 -50 -119v-456q0 -45 20.5 -71t67.5 -40q23 -7 68 -15q44 -8 44 -21q0 -20 -15 -20h-468q-17 0 -17 20z" />
<glyph unicode="s" horiz-adv-x="676" d="M65 217q-1 10 5.5 16.5t20.5 6.5q8 0 12.5 -2t7.5 -6.5t4 -9.5t3.5 -15t5.5 -18q54 -159 208 -159q69 0 104 40t35 104q0 62 -28.5 98.5t-119.5 94.5q-104 66 -151 105q-104 86 -104 200q0 108 79 178t196 70q47 0 85 -8.5t39 -8.5q4 0 16.5 8.5t35.5 8.5q21 0 23 -18 l20 -226q1 -10 -5.5 -16.5t-20.5 -6.5q-6 0 -10 1t-7.5 4.5t-5.5 7.5t-4.5 12.5t-4.5 16.5l-5.5 22t-7.5 27q-19 61 -56 93.5t-111 32.5q-68 0 -110 -38t-42 -96q0 -32 10.5 -57.5t34.5 -47t40.5 -33.5t49.5 -31q162 -97 203 -134q100 -88 100 -206q0 -113 -83.5 -180 t-202.5 -67q-25 0 -49.5 4.5t-60.5 15t-48 13.5q-4 1 -11 1q-9 0 -23.5 -17t-25.5 -17q-20 0 -22 18z" />
<glyph unicode="t" horiz-adv-x="750" d="M53 800q0 18 16 28q145 90 243 241q13 20 25 20q13 0 13 -27v-127q0 -35 35 -35h195q20 0 23 -21l13 -84q0 -2 0.5 -4.5t0.5 -3.5q0 -17 -20 -17h-212q-35 0 -35 -35v-458q0 -175 129 -175q31 0 71.5 18t69 35.5t31.5 17.5q7 0 7 -7q0 -11 -14 -34q-46 -76 -104 -114 t-116 -38q-111 0 -167.5 62.5t-56.5 178.5v514q0 35 -35 35h-80q-32 0 -32 30z" />
<glyph unicode="u" horiz-adv-x="1164" d="M53 800q0 21 16 28l217 98q23 10 36 10q28 0 28 -37v-679q0 -120 200 -120q91 0 152 26l92 40q20 9 20 32v496q0 44 -44 56l-85 25q-18 5 -18 25q0 21 16 28l217 98q23 10 35 10q29 0 29 -37v-679q0 -44 44 -56l85 -25q18 -5 18 -25q0 -21 -16 -28l-217 -98 q-23 -10 -35 -10q-29 0 -29 37v58q0 25 -17 25q-9 0 -22 -7l-134 -70q-79 -41 -182 -41q-259 0 -259 177v537q0 44 -44 56l-85 25q-18 5 -18 25z" />
<glyph unicode="v" horiz-adv-x="1022" d="M10 880q0 20 15 20h355q17 0 17 -20q0 -13 -13.5 -21t-30 -11.5t-30 -15.5t-13.5 -34q0 -15 7 -33l229 -595q7 -17 17 -17q11 0 19 20l227 591q9 26 9 42q0 19 -13.5 30t-29.5 13.5t-29.5 10t-13.5 20.5q0 20 15 20h248q17 0 17 -20q0 -16 -23.5 -22.5t-57 -20 t-50.5 -44.5q-19 -34 -37 -78q-28 -69 -66 -173t-48 -129q-8 -22 -36 -91.5t-60 -151.5t-64 -169q-10 -28 -35 -28h-48q-25 0 -36 27l-278 725q-10 28 -16 40.5t-18 32t-28 30.5t-39 16q-41 9 -51.5 15t-10.5 21z" />
<glyph unicode="w" horiz-adv-x="1647" d="M10 880q0 20 15 20h355q17 0 17 -20q0 -13 -13.5 -20.5t-30.5 -10.5t-30.5 -15t-13.5 -33q0 -14 8 -36l229 -595q7 -17 17 -17q11 0 19 20l198 514q5 15 5 30q0 40 -28 78t-70 49q-42 10 -52 15.5t-10 20.5q0 20 15 20h355q17 0 17 -20q0 -13 -13.5 -21t-30 -12t-30 -16 t-13.5 -33q0 -15 7 -33l229 -595q7 -17 17 -17q11 0 19 20l227 591q7 17 7 33q0 18 -13 30.5t-29 18t-29 14.5t-13 20q0 20 15 20h248q17 0 17 -20q0 -14 -14.5 -20t-41 -13.5t-43.5 -18.5q-35 -23 -69 -113l-274 -714q-10 -28 -35 -28h-48q-26 0 -36 27l-230 599 q-7 18 -18 18q-12 0 -18 -18l-230 -598q-10 -28 -35 -28h-48q-25 0 -36 27l-278 725q-10 28 -16 40.5t-18 32t-28 30.5t-39 16q-41 9 -51.5 15t-10.5 21z" />
<glyph unicode="x" horiz-adv-x="1150" d="M50 20q0 13 12.5 20t30.5 9.5t45.5 13.5t49.5 31q30 27 69 73l223 265q8 9 8 18q0 8 -6 16l-267 318q-26 30 -55.5 46.5t-48.5 19t-32 9t-13 21.5q0 20 15 20h384q17 0 17 -20q0 -15 -10 -20.5t-52 -15.5q-28 -7 -28 -25q0 -14 14 -29l171 -204q9 -10 16 -10t16 10 l168 200q16 19 16 33q0 17 -27 25q-42 10 -52 15.5t-10 20.5q0 20 15 20h269q17 0 17 -20q0 -14 -13 -21t-31.5 -9.5t-46 -13.5t-48.5 -30q-26 -23 -68 -73l-160 -190q-5 -7 -5 -15t6 -16l333 -396q40 -48 72 -58q36 -12 46 -18.5t10 -19.5q0 -20 -15 -20h-363q-17 0 -17 20 q0 15 10.5 21t51.5 15q28 6 28 25q0 12 -14 29l-235 280q-9 11 -18 11t-17 -10l-232 -277q-17 -20 -17 -34q0 -18 27 -24q41 -9 51.5 -15t10.5 -21q0 -20 -15 -20h-269q-17 0 -17 20z" />
<glyph unicode="y" horiz-adv-x="1086" d="M10 880q0 20 15 20h364q17 0 17 -20q0 -15 -10 -20.5t-52 -15.5q-34 -9 -34 -32q0 -9 7 -23l279 -573q10 -22 25 -22t24 22l230 568q5 11 5 24q0 27 -34 36q-42 10 -52 15.5t-10 20.5q0 20 15 20h260q17 0 17 -20q0 -15 -10 -20.5t-52 -15.5q-44 -11 -64.5 -35.5 t-41.5 -75.5l-542 -1341q-21 -52 -59 -82t-75 -30q-36 0 -57 21.5t-21 57.5q0 24 19 44t49 29q76 23 112 64.5t74 133.5l127 313q6 15 6 29q0 13 -6 27l-358 734q-3 6 -10 21t-9.5 19.5t-9 16t-10.5 15.5l-11.5 11.5t-14.5 11.5t-17.5 8.5t-22.5 7.5q-42 10 -52 15.5 t-10 20.5z" />
<glyph unicode="z" horiz-adv-x="950" d="M68 24q0 16 24 47l508 700q15 21 15 34q0 20 -33 20h-314q-93 0 -102 -51l-20 -113q-3 -17 -20 -17q-29 0 -29 21v4l45 257q3 16 19 16q30 0 30 -21v-6q0 -15 44 -15h596q30 0 30 -15q0 -10 -11 -25l-547 -753q-8 -11 -8 -19q0 -13 20 -13h270q110 0 167 28t82 89 q9 22 16 47t10 35t10 17t20 7q22 0 22 -18q0 -2 -3 -20l-42 -231q-5 -29 -38 -29h-733q-28 0 -28 24z" />
<glyph unicode="{" horiz-adv-x="650" d="M50 704q0 25 20 25q168 0 141 510q-25 511 216 511h101q20 0 20 -25t-20 -25h-50q-142 0 -117 -472q27 -472 -138 -519q-22 -5 0 -10q165 -47 138 -548q-25 -501 117 -501h50q20 0 20 -25t-20 -25h-101q-242 0 -216 539q27 540 -141 540q-20 0 -20 25z" />
<glyph unicode="|" horiz-adv-x="475" d="M200 -50v1550h75v-1550h-75z" />
<glyph unicode="}" horiz-adv-x="650" d="M50 -375q0 25 20 25h50q143 0 116 501q-26 502 139 548q22 5 0 10q-165 46 -139 519q27 472 -116 472h-50q-20 0 -20 25t20 25h101q242 0 215 -511q-26 -510 142 -510q20 0 20 -25t-20 -25q-168 0 -142 -540q27 -539 -215 -539h-101q-20 0 -20 25z" />
<glyph unicode="~" horiz-adv-x="1150" d="M160 546q0 6 4 11q74 115 126 168t116 53q58 0 192 -68q134 -67 187 -67q43 0 79 31.5t78 95.5q6 9 15 9q10 0 20.5 -8.5t10.5 -16.5q0 -3 -4 -11q-37 -57 -59.5 -88.5t-54.5 -66.5t-63 -50.5t-65 -15.5q-59 0 -193 67q-134 68 -186 68q-43 0 -79 -31.5t-78 -95.5 q-6 -9 -15 -9q-10 0 -20.5 8.5t-10.5 16.5z" />
<glyph unicode="&#xa1;" d="M135 -5q0 77 24 190q76 346 76 834q0 21 24 21q25 0 25 -21q0 -488 76 -834q24 -112 24 -190q0 -59 -34.5 -92.5t-89.5 -33.5t-90 33.5t-35 92.5zM160 1306q0 41 29.5 70.5t70.5 29.5t70.5 -29.5t29.5 -70.5t-29.5 -70.5t-70.5 -29.5t-70.5 29.5t-29.5 70.5z" />
<glyph unicode="&#xa2;" horiz-adv-x="950" d="M73 430q0 210 116.5 344.5t317.5 152.5v66q0 20 25 20t25 -20v-64q120 -1 201 -35t81 -100q0 -25 -23.5 -41t-57.5 -16q-44 0 -108 64q-46 47 -93 61v-759q91 2 157 25q70 25 137 91q14 14 32 -3q17 -18 3 -32q-85 -99 -177 -155q-71 -42 -152 -52v-69q0 -20 -25 -20 t-25 20v65h-12q-116 0 -214 64.5t-153 169t-55 223.5zM223 466q-7 -126 77 -233t207 -127v759q-135 -23 -209.5 -132t-74.5 -267z" />
<glyph unicode="&#xa3;" horiz-adv-x="1221" d="M60 -167q0 96 194 197q5 12 14 43.5t22.5 85t26.5 106.5t33 135.5t36 144.5h-229q-20 0 -20 25t20 25h242q132 517 223 690q75 142 171 212t244 70q90 0 132 -26t42 -60t-17.5 -53.5t-49.5 -19.5q-30 0 -87 58t-108 58q-52 0 -105.5 -45t-91.5 -119q-31 -61 -63.5 -158.5 t-53 -177t-55 -220.5t-52.5 -209h279q20 0 20 -25t-20 -25h-292q-48 -178 -96.5 -301t-107.5 -193q35 17 83 30t80 13q38 0 76 -11t63 -22.5t63.5 -41t53.5 -43.5t57 -54q10 -9 15 -14q47 -45 96 -45q47 0 98 47t51 92q0 32 -24.5 84t-24.5 71q0 23 16 44t43 21 q41 0 64.5 -33t23.5 -79q0 -114 -108 -213.5t-240 -99.5q-29 0 -44 3t-50.5 25t-87.5 69q-77 70 -133.5 100t-108.5 30q-41 0 -87 -29q-32 -90 -80 -148.5t-98 -58.5q-48 0 -48 45z" />
<glyph unicode="&#xa4;" horiz-adv-x="1024" d="M27 253l144 145q-102 117 -102 282q0 157 102 283l-144 141l56 57l146 -142q129 102 285 102q72 0 148 -26.5t132 -75.5l143 142l58 -57l-144 -141q103 -131 103 -281q0 -154 -103 -284l144 -145l-58 -55l-143 143q-133 -103 -270 -103q-85 0 -169.5 30t-125.5 73 l-146 -143zM150 677q0 -146 106.5 -252.5t254.5 -106.5q147 0 255 107.5t108 253.5q0 147 -108.5 254t-253.5 107q-150 0 -256 -108t-106 -255z" />
<glyph unicode="&#xa5;" horiz-adv-x="1423" d="M50 1475q0 25 20 25h527q20 0 20 -25t-20 -25h-80q-42 0 -42 -40q0 -36 35 -106l236 -485q14 -29 28 -29t28 29l233 481q38 78 38 113q0 37 -37 37h-88q-20 0 -20 25t20 25h400q20 0 20 -25t-20 -25h-41q-85 0 -158 -150l-253 -520h167q20 0 23 -21l13 -84q0 -2 0.5 -4.5 t0.5 -3.5q0 -17 -20 -17h-243q-7 -24 -7 -50v-70h233q20 0 23 -21l13 -84q0 -2 0.5 -4.5t0.5 -3.5q0 -17 -20 -17h-250v-200q0 -150 150 -150h80q20 0 20 -25t-20 -25h-660q-20 0 -20 25t20 25h80q150 0 150 150v200h-243q-20 0 -23 21l-13 84q-1 3 -1 8q0 17 20 17h260v20 q0 50 -25 100h-218q-20 0 -23 21l-13 84q-1 3 -1 8q0 17 20 17h171l-253 520q-73 150 -147 150h-71q-20 0 -20 25z" />
<glyph unicode="&#xa6;" horiz-adv-x="1087" d="M478 -251v699h96v-699h-96zM478 751v699h96v-699h-96z" />
<glyph unicode="&#xa7;" horiz-adv-x="1144" d="M120 986q0 146 68 284.5t187 224.5q134 97 300 97q119 0 214 -51t95 -111q0 -34 -24.5 -54.5t-67.5 -20.5q-53 0 -126 82t-162 82q-94 0 -162 -58.5t-68 -131.5q0 -67 36 -147t93 -161t126.5 -170t139 -186.5t126.5 -196.5t93 -214.5t36 -227.5q0 -146 -68 -284.5 t-187 -224.5q-134 -97 -300 -97q-119 0 -214 51t-95 111q0 34 24.5 54.5t67.5 20.5q53 0 126 -82t162 -82q94 0 162 58.5t68 131.5q0 67 -36 147t-93 161t-126.5 170t-139 186.5t-126.5 196.5t-93 214.5t-36 227.5zM211 991q0 -90 33.5 -186.5t88 -185t120 -179t132.5 -182 t123.5 -179.5t95 -185t44.5 -187q45 80 65 152.5t20 161.5q0 90 -33.5 186.5t-88 185t-120 179t-132.5 182t-123.5 179.5t-95 185t-44.5 187q-45 -80 -65 -152.5t-20 -161.5z" />
<glyph unicode="&#xa8;" horiz-adv-x="800" d="M100 1300q0 41 29.5 70.5t70.5 29.5t70.5 -29.5t29.5 -70.5t-29.5 -70.5t-70.5 -29.5t-70.5 29.5t-29.5 70.5zM500 1300q0 41 29.5 70.5t70.5 29.5t70.5 -29.5t29.5 -70.5t-29.5 -70.5t-70.5 -29.5t-70.5 29.5t-29.5 70.5z" />
<glyph unicode="&#xa9;" horiz-adv-x="1640" d="M50 750q0 157 61 299.5t164 245.5t245.5 164t299.5 61t299.5 -61t245.5 -164t164 -245.5t61 -299.5t-61 -299.5t-164 -245.5t-245.5 -164t-299.5 -61t-299.5 61t-245.5 164t-164 245.5t-61 299.5zM125 750q0 -141 55 -270t148 -222t222 -148t270 -55t270 55t222 148 t148 222t55 270t-55 270t-148 222t-222 148t-270 55t-270 -55t-222 -148t-148 -222t-55 -270zM269 754q0 157 77 280.5t210.5 190.5t298.5 67q99 0 210 -41q58 -23 97 -23q5 0 19.5 5.5t19.5 5.5q17 0 18 -14l16 -224q2 -16 -16 -16q-18 -2 -21 16q-6 22 -8 27 q-55 103 -144 157t-196 54q-197 0 -319 -134.5t-122 -333.5q0 -137 56.5 -252t161 -184t235.5 -69q98 0 187 40q87 38 132 93q45 60 66 107q6 13 22 5q16 -6 11 -19l-103 -229q-5 -9 -14 -8q-22 7 -43 7q-29 0 -115 -25q-84 -23 -150 -23q-163 0 -296 66t-211.5 190 t-78.5 284z" />
<glyph unicode="&#xaa;" horiz-adv-x="550" d="M35 1087q0 33 25 54t89 50l97 42q20 9 20 40v60q0 42 -21 67t-57 25q-21 0 -42 -16t-21 -45q0 -5 0.5 -10t1.5 -7.5t1 -3.5q0 -5 -3 -7q-58 -27 -71 -27q-8 0 -8 17q0 42 40 79.5t81 47.5q28 7 51 7q50 0 86.5 -35t36.5 -109v-219q0 -40 39 -40q11 0 28 9l18 8q4 0 4 -9 q0 -13 -10 -20l-48 -35q-27 -20 -53 -20q-19 0 -31.5 14.5t-14.5 23t-5 25.5q0 5 -2 5q-1 0 -3 -2l-62 -45q-28 -21 -65 -21q-40 0 -70.5 27t-30.5 70zM113 1099q0 -25 18 -41.5t48 -16.5q22 0 48 19l26 19q13 10 13 24v95q0 11 -9 11q-3 0 -7 -2l-93 -40q-44 -20 -44 -68z " />
<glyph unicode="&#xab;" horiz-adv-x="1100" d="M50 464q0 11 8 20l308 359q8 8 17 8q4 0 14 -2l35 -8q8 -2 8 -7q0 -4 -3 -9l-202 -341q-6 -10 -6 -20t6 -20l202 -341q3 -5 3 -9q0 -5 -8 -7l-35 -8q-10 -2 -14 -2q-9 0 -17 8l-308 359q-8 9 -8 20zM450 464q0 11 8 20l308 359q8 8 17 8q4 0 14 -2l35 -8q8 -2 8 -7 q0 -4 -3 -9l-202 -341q-6 -10 -6 -20t6 -20l202 -341q3 -5 3 -9q0 -5 -8 -7l-35 -8q-10 -2 -14 -2q-9 0 -17 8l-308 359q-8 9 -8 20z" />
<glyph unicode="&#xac;" horiz-adv-x="1366" d="M139 847v96h1088v-592h-96v496h-992z" />
<glyph unicode="&#xad;" horiz-adv-x="1366" d="M139 847v96h1088v-96h-1088z" />
<glyph unicode="&#xae;" horiz-adv-x="1640" d="M50 750q0 157 61 299.5t164 245.5t245.5 164t299.5 61t299.5 -61t245.5 -164t164 -245.5t61 -299.5q0 -277 -178 -492q22 -12 33 -14q10 -3 10 -15q0 -14 -22 -14h-33q-17 0 -25 1q-107 -111 -251 -173.5t-304 -62.5q-157 0 -299.5 61t-245.5 164t-164 245.5t-61 299.5z M125 750q0 -141 55 -270t148 -222t222 -148t270 -55q134 0 255.5 48.5t216.5 136.5l-18 9q-109 57 -198.5 161t-176.5 263q-10 15 -31 15q-1 0 -24.5 -1t-37.5 -1q-21 0 -42.5 0.5t-24.5 0.5q-36 0 -36 -32v-286q0 -105 105 -105h21q14 0 14 -18q0 -17 -14 -17h-392 q-14 0 -14 17q0 18 14 18h21q105 0 105 105v770q0 105 -105 105h-21q-14 0 -14 17q0 18 14 18q46 0 115.5 -1t92.5 -1q41 0 89.5 0.5t64.5 0.5q111 0 182 -17.5t123 -64.5q89 -81 89 -224q0 -144 -147 -231q-12 -7 -12 -21q0 -6 3 -13q35 -80 103 -176.5t158 -181.5 q35 -33 53 -48q164 195 164 449q0 141 -55 270t-148 222t-222 148t-270 55t-270 -55t-222 -148t-148 -222t-55 -270zM703 783q0 -29 19.5 -35t83.5 -6q106 0 176.5 65t70.5 160q0 114 -72 186t-172 72q-6 0 -31.5 -0.5t-39.5 -0.5q-35 -2 -35 -35v-406z" />
<glyph unicode="&#xaf;" horiz-adv-x="850" d="M50 1238q0 37 20 37h610q20 0 20 -37q0 -38 -20 -38h-610q-20 0 -20 38z" />
<glyph unicode="&#xb0;" horiz-adv-x="790" d="M100 1281q0 122 86.5 208.5t208.5 86.5t208.5 -86.5t86.5 -208.5t-86.5 -208.5t-208.5 -86.5t-208.5 86.5t-86.5 208.5zM150 1281q0 -101 72 -173t173 -72t173 72t72 173t-72 173t-173 72t-173 -72t-72 -173z" />
<glyph unicode="&#xb1;" horiz-adv-x="1150" d="M100 360v75h950v-75h-950zM100 948v75h437v437h75v-437h438v-75h-438v-438h-75v438h-437z" />
<glyph unicode="&#xb2;" d="M44 801q0 10 10 24l169 250q69 102 92 165.5t23 124.5q0 54 -34 91t-86 37t-119 -49q-4 -2 -6 -2q-4 0 -8.5 5t-4.5 10q0 4 4 7q119 86 180 86t105 -45.5t44 -105.5q0 -73 -31 -131q-18 -36 -121 -188l-144 -212q-3 -4 -3 -9q0 -4 8 -4h168q55 0 83.5 13.5t40.5 44.5 q5 12 9.5 28.5t7.5 20.5t11 4q11 0 11 -9v-4l-28 -149q-3 -14 -19 -14h-345q-17 0 -17 11z" />
<glyph unicode="&#xb3;" d="M57 841q0 36 41 36q22 0 56 -29q32 -29 86 -29t95.5 42.5t41.5 112.5q0 69 -53.5 130.5t-119.5 61.5q-10 0 -16.5 -3.5t-7.5 -3.5q-4 0 -9 4.5t-5 9.5q0 4 3 7q44 43 94 87q57 51 57 108q0 50 -29 79.5t-79 29.5q-36 0 -56 -8t-45 -31q-7 -7 -13 -7q-13 0 -13 11 q0 4 7 15t21 25.5t32.5 28t45.5 23t55 9.5q64 0 105 -41.5t41 -114.5q0 -76 -127 -159q-3 -3 -3 -5q0 -4 5 -4q72 -10 129 -73t57 -137q0 -90 -78 -164q-77 -72 -183 -72q-68 0 -101.5 18.5t-33.5 42.5z" />
<glyph unicode="&#xb4;" horiz-adv-x="450" d="M50 1177q0 5 3 9l141 273q32 61 97 61q26 0 43.5 -15.5t17.5 -38.5q0 -34 -28 -60l-228 -224q-13 -13 -30 -13q-16 0 -16 8z" />
<glyph unicode="&#xb5;" horiz-adv-x="1164" d="M50 -680q0 15 10 20.5t52 15.5q47 12 67.5 39t20.5 72v1227q0 42 -44 56l-85 25q-18 5 -18 25q0 21 16 28l217 98q23 10 35 10q29 0 29 -37v-681q0 -114 200 -114q101 0 152 22l92 40q20 9 20 32v496q0 44 -44 56l-85 25q-18 5 -18 25q0 21 16 28l217 98q64 30 64 -27 v-679q0 -44 44 -56l85 -25q18 -5 18 -25q0 -21 -16 -28l-217 -98q-64 -30 -64 27v58q0 38 -39 18l-134 -70q-79 -41 -182 -41q-47 0 -86 6q-12 2 -17.5 -5t-5.5 -20v-494q0 -59 33 -84.5t123 -40.5q44 -8 44 -22q0 -20 -15 -20h-468q-17 0 -17 20z" />
<glyph unicode="&#xb6;" horiz-adv-x="1005" d="M20 1125q0 181 121 278t329 97h495v-60h-130v-1440h-75v1440h-185v-1440h-75v745q-102 -4 -187.5 16.5t-151.5 65.5t-103.5 121.5t-37.5 176.5z" />
<glyph unicode="&#xb7;" horiz-adv-x="624" d="M200 693q0 47 33 79.5t79 32.5t79 -32.5t33 -79.5t-33 -79.5t-79 -32.5t-79 32.5t-33 79.5z" />
<glyph unicode="&#xb8;" horiz-adv-x="600" d="M92 -475q0 45 52 45q24 0 60 -27.5t58 -27.5q44 0 72.5 36t28.5 102q0 54 -36 92t-85 38q-18 0 -18 8q0 5 6 13l142 180q13 16 31 16h24q20 0 5 -20l-91 -116q-5 -6 -5 -13q0 -8 12 -11q62 -19 101 -64t39 -110q0 -89 -76.5 -145t-178.5 -56q-63 0 -102 17t-39 43z" />
<glyph unicode="&#xb9;" horiz-adv-x="600" d="M150 800q0 7 5.5 10t25.5 8q44 11 44 55v556q0 20 -22 28l-43 13q-9 2 -9 12q0 11 8 14l109 49q32 15 32 -13v-659q0 -44 44 -55q20 -5 25.5 -8t5.5 -10q0 -10 -8 -10h-209q-8 0 -8 10z" />
<glyph unicode="&#xba;" horiz-adv-x="614" d="M20 1230q0 119 79.5 200.5t207.5 81.5t207.5 -81.5t79.5 -200.5t-80 -200.5t-207 -81.5q-128 0 -207.5 81.5t-79.5 200.5zM114 1258q0 -115 66 -196.5t149 -81.5q75 0 123 64.5t48 156.5q0 115 -66 197t-149 82q-75 0 -123 -65t-48 -157z" />
<glyph unicode="&#xbb;" horiz-adv-x="1090" d="M250 94q0 4 3 9l202 341q6 10 6 20t-6 20l-202 341q-3 5 -3 9q0 5 8 7l35 8q10 2 14 2q9 0 17 -8l308 -359q8 -9 8 -20t-8 -20l-308 -359q-8 -8 -17 -8q-4 0 -14 2l-35 8q-8 2 -8 7zM650 94q0 4 3 9l202 341q6 10 6 20t-6 20l-202 341q-3 5 -3 9q0 5 8 7l35 8q10 2 14 2 q9 0 17 -8l308 -359q8 -9 8 -20t-8 -20l-308 -359q-8 -8 -17 -8q-4 0 -14 2l-35 8q-8 2 -8 7z" />
<glyph unicode="&#xbc;" horiz-adv-x="950" d="M7 10q0 5 3 11l889 1540q6 10 16 10t20.5 -8t10.5 -16q0 -5 -3 -11l-890 -1540q-6 -11 -16 -11t-20 8.5t-10 16.5zM150 910q0 7 5.5 10t25.5 8q44 11 44 55v556q0 20 -22 28l-43 13q-9 2 -9 12q0 11 8 14l109 49q32 15 32 -13v-659q0 -44 44 -55q20 -5 25.5 -8t5.5 -10 q0 -10 -8 -10h-209q-8 0 -8 10zM450 170q0 7 4 12l383 568q7 10 13 10q9 0 9 -11v-505q0 -18 18 -18h68q10 0 11 -10l7 -42q1 -13 -10 -13h-76q-18 0 -18 -17v-159q0 -10 -9 -10h-55q-11 0 -11 10v159q0 17 -17 17h-307q-10 0 -10 9zM523.5 232q2.5 -6 12.5 -6h231 q17 0 17 18v341q0 15 -7 17.5t-16 -10.5l-234 -347q-6 -7 -3.5 -13z" />
<glyph unicode="&#xbd;" horiz-adv-x="950" d="M7 10q0 5 3 11l889 1540q6 10 16 10t20.5 -8t10.5 -16q0 -5 -3 -11l-890 -1540q-6 -11 -16 -11t-20 8.5t-10 16.5zM150 910q0 7 5.5 10t25.5 8q44 11 44 55v556q0 20 -22 28l-43 13q-9 2 -9 12q0 11 8 14l109 49q32 15 32 -13v-659q0 -44 44 -55q20 -5 25.5 -8t5.5 -10 q0 -10 -8 -10h-209q-8 0 -8 10zM502 11q0 10 10 24l169 250q69 102 92 165.5t23 124.5q0 54 -34 91t-86 37t-119 -49q-4 -2 -6 -2q-4 0 -8.5 5t-4.5 10q0 4 4 7q119 86 180 86t105 -45.5t44 -105.5q0 -73 -31 -131q-18 -36 -121 -188l-144 -212q-3 -4 -3 -9q0 -4 8 -4h168 q55 0 83.5 13.5t40.5 44.5q5 11 8.5 23.5t4.5 17.5t5 8.5t10 3.5q11 0 11 -9q0 -1 -1 -3v-1l-27 -149q-3 -14 -19 -14h-345q-17 0 -17 11z" />
<glyph unicode="&#xbe;" horiz-adv-x="950" d="M7 10q0 5 3 11l889 1540q6 10 16 10t20.5 -8t10.5 -16q0 -5 -3 -11l-890 -1540q-6 -11 -16 -11t-20 8.5t-10 16.5zM48 951q0 36 41 36q22 0 56 -29q32 -29 86 -29t95.5 42.5t41.5 112.5q0 69 -53.5 130.5t-119.5 61.5q-10 0 -16.5 -3.5t-7.5 -3.5q-5 0 -9.5 4.5t-4.5 9.5 q0 4 3 7q44 43 94 87q57 51 57 108q0 50 -29 79.5t-79 29.5q-36 0 -56 -8t-45 -31q-7 -7 -13 -7q-13 0 -13 11q0 4 7 15t21 25.5t32.5 28t45.5 23t55 9.5q64 0 105 -41.5t41 -114.5q0 -76 -127 -159q-3 -3 -3 -5q0 -4 5 -4q72 -10 129 -73t57 -137q0 -90 -78 -164 q-76 -72 -183 -72q-68 0 -101.5 18.5t-33.5 42.5zM450 170q0 7 4 12l383 568q7 10 13 10q9 0 9 -11v-505q0 -18 18 -18h68q10 0 11 -10l7 -42q1 -13 -10 -13h-76q-18 0 -18 -17v-159q0 -10 -9 -10h-55q-11 0 -11 10v159q0 17 -17 17h-307q-10 0 -10 9zM523.5 232 q2.5 -6 12.5 -6h231q17 0 17 18v341q0 15 -7 17.5t-16 -10.5l-234 -347q-6 -7 -3.5 -13z" />
<glyph unicode="&#xbf;" horiz-adv-x="750" d="M59 298q0 124 82 233t203 162q114 50 145 76t31 69q0 46 -32 110l-28 57q-3 6 -3 10q0 8 10.5 17t23.5 9t19 -13l32 -65q61 -123 61 -190q0 -76 -31 -119t-115 -75q-56 -22 -94 -38.5t-90 -47t-84 -61t-55 -75.5t-23 -95q0 -110 82.5 -166t211.5 -56q31 0 87 2t83 2 q106 0 106 -81q0 -95 -188 -95q-178 0 -306 122t-128 308zM372 1305q0 41 29.5 70.5t70.5 29.5t70.5 -29.5t29.5 -70.5t-29.5 -70.5t-70.5 -29.5t-70.5 29.5t-29.5 70.5z" />
<glyph unicode="&#xc0;" horiz-adv-x="1750" d="M0 25q0 25 20 25h49q119 0 187 150l544 1221q12 27 -2 65q-12 34 28 34h130q42 0 57 -40l466 -1280q54 -150 130 -150h85q20 0 20 -25t-20 -25h-529q-20 0 -20 25t20 25h80q75 0 38 103l-142 391q-18 50 -69 50h-481q-49 0 -72 -50l-172 -386q-48 -108 43 -108h80 q20 0 20 -25t-20 -25h-450q-20 0 -20 25zM596 719q-23 -50 29 -50h420q50 0 32 50l-194 533q-12 35 -24 35q-10 0 -25 -35zM623 1918q0 23 17.5 38.5t43.5 15.5q65 0 97 -61l141 -273q3 -4 3 -9q0 -8 -16 -8q-17 0 -30 13l-228 224q-28 26 -28 60z" />
<glyph unicode="&#xc1;" horiz-adv-x="1750" d="M0 25q0 25 20 25h49q119 0 187 150l544 1221q12 27 -2 65q-12 34 28 34h130q42 0 57 -40l466 -1280q54 -150 130 -150h85q20 0 20 -25t-20 -25h-529q-20 0 -20 25t20 25h80q75 0 38 103l-142 391q-18 50 -69 50h-481q-49 0 -72 -50l-172 -386q-48 -108 43 -108h80 q20 0 20 -25t-20 -25h-450q-20 0 -20 25zM596 719q-23 -50 29 -50h420q50 0 32 50l-194 533q-12 35 -24 35q-10 0 -25 -35zM859 1627q0 5 3 9l141 273q32 61 97 61q26 0 43.5 -15.5t17.5 -38.5q0 -34 -28 -60l-228 -224q-13 -13 -30 -13q-16 0 -16 8z" />
<glyph unicode="&#xc2;" horiz-adv-x="1750" d="M0 25q0 25 20 25h49q119 0 187 150l544 1221q12 27 -2 65q-12 34 28 34h130q42 0 57 -40l466 -1280q54 -150 130 -150h85q20 0 20 -25t-20 -25h-529q-20 0 -20 25t20 25h80q75 0 38 103l-142 391q-18 50 -69 50h-481q-49 0 -72 -50l-172 -386q-48 -108 43 -108h80 q20 0 20 -25t-20 -25h-450q-20 0 -20 25zM535 1660v49q0 13 11 19l324 171q20 11 40 0l324 -171q11 -6 11 -19v-49q0 -13 -13 -9l-322 96q-20 6 -40 0l-322 -96q-13 -4 -13 9zM596 719q-23 -50 29 -50h420q50 0 32 50l-194 533q-12 35 -24 35q-10 0 -25 -35z" />
<glyph unicode="&#xc3;" horiz-adv-x="1750" d="M0 25q0 25 20 25h49q119 0 187 150l544 1221q12 27 -2 65q-12 34 28 34h130q42 0 57 -40l466 -1280q54 -150 130 -150h85q20 0 20 -25t-20 -25h-529q-20 0 -20 25t20 25h80q75 0 38 103l-142 391q-18 50 -69 50h-481q-49 0 -72 -50l-172 -386q-48 -108 43 -108h80 q20 0 20 -25t-20 -25h-450q-20 0 -20 25zM546 1686q63 97 116 157q55 64 126 64q58 0 153 -68q94 -67 147 -67q43 0 79.5 32t77.5 95q11 17 32 3q21 -13 10 -30q-59 -90 -117 -158q-56 -63 -125 -63q-59 0 -153 67q-95 68 -147 68q-43 0 -79.5 -32t-77.5 -95q-11 -17 -32 -3 q-21 13 -10 30zM596 719q-23 -50 29 -50h420q50 0 32 50l-194 533q-12 35 -24 35q-10 0 -25 -35z" />
<glyph unicode="&#xc4;" horiz-adv-x="1750" d="M0 25q0 25 20 25h49q119 0 187 150l544 1221q12 27 -2 65q-12 34 28 34h130q42 0 57 -40l466 -1280q54 -150 130 -150h85q20 0 20 -25t-20 -25h-529q-20 0 -20 25t20 25h80q75 0 38 103l-142 391q-18 50 -69 50h-481q-49 0 -72 -50l-172 -386q-48 -108 43 -108h80 q20 0 20 -25t-20 -25h-450q-20 0 -20 25zM596 719q-23 -50 29 -50h420q50 0 32 50l-194 533q-12 35 -24 35q-10 0 -25 -35zM614 1750q0 41 29.5 70.5t70.5 29.5t70.5 -29.5t29.5 -70.5t-29.5 -70.5t-70.5 -29.5t-70.5 29.5t-29.5 70.5zM1014 1750q0 41 29.5 70.5t70.5 29.5 t70.5 -29.5t29.5 -70.5t-29.5 -70.5t-70.5 -29.5t-70.5 29.5t-29.5 70.5z" />
<glyph unicode="&#xc5;" horiz-adv-x="1750" d="M0 25q0 25 20 25h49q119 0 187 150l544 1221q12 27 -2 65q-12 34 28 34h130q42 0 57 -40l466 -1280q54 -150 130 -150h85q20 0 20 -25t-20 -25h-529q-20 0 -20 25t20 25h80q75 0 38 103l-142 391q-18 50 -69 50h-481q-49 0 -72 -50l-172 -386q-48 -108 43 -108h80 q20 0 20 -25t-20 -25h-450q-20 0 -20 25zM596 719q-23 -50 29 -50h420q50 0 32 50l-194 533q-12 35 -24 35q-10 0 -25 -35zM699 1760q0 82 58.5 141t141.5 59t141.5 -59t58.5 -141t-58.5 -141t-141.5 -59t-141.5 59t-58.5 141zM749 1759q0 -62 44 -106t106 -44t106.5 44 t44.5 106t-44.5 106.5t-106.5 44.5t-106 -44.5t-44 -106.5z" />
<glyph unicode="&#xc6;" horiz-adv-x="1750" d="M50 25q0 25 20 25h49q87 0 150 150l518 1212q17 38 -37 38h-30q-20 0 -20 25t20 25h827q32 0 35 -29l26 -302q1 -10 -5 -15.5t-18 -6.5q-25 -1 -26 18q-18 114 -30 151q-40 109 -222 109h-157q-50 0 -50 -50v-510q0 -50 50 -50h150q150 0 150 150v30q0 20 25 20t25 -20 v-435q0 -20 -25 -20t-25 20v30q0 150 -150 150h-150q-50 0 -50 -50v-465q0 -150 150 -150h139q181 0 222 107q12 40 30 153q1 19 26 18q12 -1 18 -6.5t5 -15.5l-26 -302q-3 -29 -35 -29h-909q-20 0 -20 25t20 25h30q150 0 150 150v344q0 50 -50 50h-253q-49 0 -72 -50 l-164 -386q-47 -108 29 -108h80q20 0 20 -25t-20 -25h-400q-20 0 -20 25zM598 719q-21 -50 29 -50h223q50 0 50 50v645q0 21 -9 21t-19 -22z" />
<glyph unicode="&#xc7;" horiz-adv-x="1550" d="M50 751q0 169 64.5 313t176 243.5t266 156t330.5 56.5q147 0 299 -58q90 -34 139 -34q8 0 28.5 8t27.5 8q23 1 25 -19l23 -321q2 -22 -23 -23q-26 -2 -30 23q-5 28 -11 39q-81 147 -207 224.5t-278 77.5q-140 0 -259.5 -52.5t-200 -143t-125.5 -213t-45 -260.5 q0 -196 81 -360t230 -262.5t336 -98.5q141 0 267 56q126 57 188 134q62 79 95 152q8 17 31 8q22 -10 15 -28l-146 -327q-6 -14 -20 -11q-36 9 -62 9q-44 0 -164 -35q-58 -17 -116 -25q-52 -7 -81 -45l-62 -79q-14 -18 7 -24q62 -18 101 -63.5t39 -110.5q0 -86 -84.5 -143.5 t-177.5 -57.5q-137 0 -137 51q0 22 15.5 38t39.5 16q23 0 61.5 -27.5t61.5 -27.5q43 0 69.5 35.5t26.5 102.5q0 54 -36 92t-85 38q-29 0 -12 21l113 144q9 10 3 21.5t-21 12.5q-219 12 -394.5 109t-278.5 269.5t-103 390.5z" />
<glyph unicode="&#xc8;" horiz-adv-x="1350" d="M100 25q0 25 20 25h80q150 0 150 150v1100q0 150 -150 150h-30q-20 0 -20 25t20 25h977q32 0 35 -29l26 -302q1 -10 -5 -15.5t-18 -6.5q-25 -1 -26 18q-18 114 -30 151q-40 109 -222 109h-307q-50 0 -50 -50v-510q0 -50 50 -50h300q150 0 150 150v30q0 20 25 20t25 -20 v-435q0 -20 -25 -20t-25 20v30q0 150 -150 150h-300q-50 0 -50 -50v-465q0 -150 150 -150h289q181 0 222 107q12 40 30 153q1 19 26 18q12 -1 18 -6.5t5 -15.5l-26 -302q-3 -29 -35 -29h-1109q-20 0 -20 25zM503 1918q0 23 17.5 38.5t43.5 15.5q65 0 97 -61l141 -273 q3 -4 3 -9q0 -8 -16 -8q-17 0 -30 13l-228 224q-28 26 -28 60z" />
<glyph unicode="&#xc9;" horiz-adv-x="1350" d="M100 25q0 25 20 25h80q150 0 150 150v1100q0 150 -150 150h-30q-20 0 -20 25t20 25h977q32 0 35 -29l26 -302q1 -10 -5 -15.5t-18 -6.5q-25 -1 -26 18q-18 114 -30 151q-40 109 -222 109h-307q-50 0 -50 -50v-510q0 -50 50 -50h300q150 0 150 150v30q0 20 25 20t25 -20 v-435q0 -20 -25 -20t-25 20v30q0 150 -150 150h-300q-50 0 -50 -50v-465q0 -150 150 -150h289q181 0 222 107q12 40 30 153q1 19 26 18q12 -1 18 -6.5t5 -15.5l-26 -302q-3 -29 -35 -29h-1109q-20 0 -20 25zM595 1627q0 5 3 9l141 273q32 61 97 61q26 0 43.5 -15.5 t17.5 -38.5q0 -34 -28 -60l-228 -224q-13 -13 -30 -13q-16 0 -16 8z" />
<glyph unicode="&#xca;" horiz-adv-x="1350" d="M100 25q0 25 20 25h80q150 0 150 150v1100q0 150 -150 150h-30q-20 0 -20 25t20 25h977q32 0 35 -29l26 -302q1 -10 -5 -15.5t-18 -6.5q-25 -1 -26 18q-18 114 -30 151q-40 109 -222 109h-307q-50 0 -50 -50v-510q0 -50 50 -50h300q150 0 150 150v30q0 20 25 20t25 -20 v-435q0 -20 -25 -20t-25 20v30q0 150 -150 150h-300q-50 0 -50 -50v-465q0 -150 150 -150h289q181 0 222 107q12 40 30 153q1 19 26 18q12 -1 18 -6.5t5 -15.5l-26 -302q-3 -29 -35 -29h-1109q-20 0 -20 25zM338 1660v49q0 13 11 19l324 171q20 11 40 0l324 -171 q11 -6 11 -19v-49q0 -13 -13 -9l-322 96q-20 6 -40 0l-322 -96q-13 -4 -13 9z" />
<glyph unicode="&#xcb;" horiz-adv-x="1350" d="M100 25q0 25 20 25h80q150 0 150 150v1100q0 150 -150 150h-30q-20 0 -20 25t20 25h977q32 0 35 -29l26 -302q1 -10 -5 -15.5t-18 -6.5q-25 -1 -26 18q-18 114 -30 151q-40 109 -222 109h-307q-50 0 -50 -50v-510q0 -50 50 -50h300q150 0 150 150v30q0 20 25 20t25 -20 v-435q0 -20 -25 -20t-25 20v30q0 150 -150 150h-300q-50 0 -50 -50v-465q0 -150 150 -150h289q181 0 222 107q12 40 30 153q1 19 26 18q12 -1 18 -6.5t5 -15.5l-26 -302q-3 -29 -35 -29h-1109q-20 0 -20 25zM447 1750q0 41 29.5 70.5t70.5 29.5t70.5 -29.5t29.5 -70.5 t-29.5 -70.5t-70.5 -29.5t-70.5 29.5t-29.5 70.5zM847 1750q0 41 29.5 70.5t70.5 29.5t70.5 -29.5t29.5 -70.5t-29.5 -70.5t-70.5 -29.5t-70.5 29.5t-29.5 70.5z" />
<glyph unicode="&#xcc;" horiz-adv-x="900" d="M100 25q0 25 20 25h80q150 0 150 150v1100q0 150 -150 150h-80q-20 0 -20 25t20 25h660q20 0 20 -25t-20 -25h-80q-150 0 -150 -150v-1100q0 -150 150 -150h80q20 0 20 -25t-20 -25h-660q-20 0 -20 25zM158 1918q0 23 17.5 38.5t43.5 15.5q65 0 97 -61l141 -273 q3 -4 3 -9q0 -8 -16 -8q-17 0 -30 13l-228 224q-28 26 -28 60z" />
<glyph unicode="&#xcd;" horiz-adv-x="900" d="M100 25q0 25 20 25h80q150 0 150 150v1100q0 150 -150 150h-80q-20 0 -20 25t20 25h660q20 0 20 -25t-20 -25h-80q-150 0 -150 -150v-1100q0 -150 150 -150h80q20 0 20 -25t-20 -25h-660q-20 0 -20 25zM453 1627q0 5 3 9l141 273q32 61 97 61q26 0 43.5 -15.5t17.5 -38.5 q0 -34 -28 -60l-228 -224q-13 -13 -30 -13q-16 0 -16 8z" />
<glyph unicode="&#xce;" horiz-adv-x="900" d="M95 1660v49q0 13 11 19l324 171q20 11 40 0l324 -171q11 -6 11 -19v-49q0 -13 -13 -9l-322 96q-20 6 -40 0l-322 -96q-13 -4 -13 9zM100 25q0 25 20 25h80q150 0 150 150v1100q0 150 -150 150h-80q-20 0 -20 25t20 25h660q20 0 20 -25t-20 -25h-80q-150 0 -150 -150 v-1100q0 -150 150 -150h80q20 0 20 -25t-20 -25h-660q-20 0 -20 25z" />
<glyph unicode="&#xcf;" horiz-adv-x="900" d="M100 25q0 25 20 25h80q150 0 150 150v1100q0 150 -150 150h-80q-20 0 -20 25t20 25h660q20 0 20 -25t-20 -25h-80q-150 0 -150 -150v-1100q0 -150 150 -150h80q20 0 20 -25t-20 -25h-660q-20 0 -20 25zM150 1750q0 41 29.5 70.5t70.5 29.5t70.5 -29.5t29.5 -70.5 t-29.5 -70.5t-70.5 -29.5t-70.5 29.5t-29.5 70.5zM550 1750q0 41 29.5 70.5t70.5 29.5t70.5 -29.5t29.5 -70.5t-29.5 -70.5t-70.5 -29.5t-70.5 29.5t-29.5 70.5z" />
<glyph unicode="&#xd0;" horiz-adv-x="1800" d="M52 562v435q0 20 25 20t25 -20v-30q0 -150 150 -150h48v483q0 150 -150 150h-30q-20 0 -20 25t20 25q191 0 402.5 10t364.5 10q234 0 424.5 -97t300.5 -273.5t110 -398.5q0 -172 -64.5 -317t-177 -244t-265.5 -154.5t-328 -55.5q-134 0 -352.5 10t-414.5 10q-20 0 -20 25 t20 25h30q150 0 150 150v542h-48q-150 0 -150 -150v-30q0 -20 -25 -20t-25 20zM500 225q0 -46 15.5 -78t40.5 -50.5t71 -28.5t92 -13t117 -3q141 0 258 37.5t196 100.5t133.5 147.5t79 176t24.5 188.5q0 110 -25 214.5t-82.5 202.5t-141 171.5t-209.5 117.5t-280 44 q-81 0 -164 -10l-75 -9q-50 -6 -50 -56v-560h73q150 0 150 150v30q0 20 25 20t25 -20v-435q0 -20 -25 -20t-25 20v30q0 150 -150 150h-73v-517z" />
<glyph unicode="&#xd1;" horiz-adv-x="2000" d="M100 25q0 25 20 25h30q150 0 150 150v1100q0 150 -150 150h-30q-20 0 -20 25t20 25h243q37 0 55 -19l1133 -1186q19 -21 31 -21q18 0 18 46v980q0 150 -150 150h-30q-20 0 -20 25t20 25h460q20 0 20 -25t-20 -25h-30q-150 0 -150 -150v-1250q0 -50 -50 -50t-86 38 l-1114 1178q-22 22 -32 22q-18 0 -18 -47v-991q0 -150 150 -150h30q20 0 20 -25t-20 -25h-460q-20 0 -20 25zM630 1686q63 97 116 157q55 64 126 64q58 0 153 -68q94 -67 147 -67q43 0 79.5 32t77.5 95q11 17 32 3q21 -13 10 -30q-59 -90 -117 -158q-56 -63 -125 -63 q-59 0 -153 67q-95 68 -147 68q-43 0 -79.5 -32t-77.5 -95q-11 -17 -32 -3q-21 13 -10 30z" />
<glyph unicode="&#xd2;" horiz-adv-x="1772" d="M50 751q0 333 237 551q238 218 600 218q360 0 598 -218q237 -218 237 -551q0 -335 -236 -553t-599 -218q-361 0 -600 218q-237 216 -237 553zM250 775q0 -203 85 -368t235 -258.5t334 -93.5q177 0 318 86.5t220.5 239.5t79.5 345q0 202 -84.5 366.5t-234.5 258.5t-334 94 q-176 0 -317.5 -86.5t-221.5 -240t-80 -343.5zM579 1918q0 23 17.5 38.5t43.5 15.5q65 0 97 -61l141 -273q3 -4 3 -9q0 -8 -16 -8q-17 0 -30 13l-228 224q-28 26 -28 60z" />
<glyph unicode="&#xd3;" horiz-adv-x="1772" d="M50 751q0 333 237 551q238 218 600 218q360 0 598 -218q237 -218 237 -551q0 -335 -236 -553t-599 -218q-361 0 -600 218q-237 216 -237 553zM250 775q0 -203 85 -368t235 -258.5t334 -93.5q177 0 318 86.5t220.5 239.5t79.5 345q0 202 -84.5 366.5t-234.5 258.5t-334 94 q-176 0 -317.5 -86.5t-221.5 -240t-80 -343.5zM835 1627q0 5 3 9l141 273q32 61 97 61q26 0 43.5 -15.5t17.5 -38.5q0 -34 -28 -60l-228 -224q-13 -13 -30 -13q-16 0 -16 8z" />
<glyph unicode="&#xd4;" horiz-adv-x="1772" d="M50 751q0 333 237 551q238 218 600 218q360 0 598 -218q237 -218 237 -551q0 -335 -236 -553t-599 -218q-361 0 -600 218q-237 216 -237 553zM250 775q0 -203 85 -368t235 -258.5t334 -93.5q177 0 318 86.5t220.5 239.5t79.5 345q0 202 -84.5 366.5t-234.5 258.5t-334 94 q-176 0 -317.5 -86.5t-221.5 -240t-80 -343.5zM531 1660v49q0 13 11 19l324 171q20 11 40 0l324 -171q11 -6 11 -19v-49q0 -13 -13 -9l-322 96q-20 6 -40 0l-322 -96q-13 -4 -13 9z" />
<glyph unicode="&#xd5;" horiz-adv-x="1772" d="M50 751q0 333 237 551q238 218 600 218q360 0 598 -218q237 -218 237 -551q0 -335 -236 -553t-599 -218q-361 0 -600 218q-237 216 -237 553zM250 775q0 -203 85 -368t235 -258.5t334 -93.5q177 0 318 86.5t220.5 239.5t79.5 345q0 202 -84.5 366.5t-234.5 258.5t-334 94 q-176 0 -317.5 -86.5t-221.5 -240t-80 -343.5zM516 1686q63 97 116 157q55 64 126 64q58 0 153 -68q94 -67 147 -67q43 0 79.5 32t77.5 95q11 17 32 3q21 -13 10 -30q-59 -90 -117 -158q-56 -63 -125 -63q-59 0 -153 67q-95 68 -147 68q-43 0 -79.5 -32t-77.5 -95 q-11 -17 -32 -3q-21 13 -10 30z" />
<glyph unicode="&#xd6;" horiz-adv-x="1772" d="M50 751q0 333 237 551q238 218 600 218q360 0 598 -218q237 -218 237 -551q0 -335 -236 -553t-599 -218q-361 0 -600 218q-237 216 -237 553zM250 775q0 -203 85 -368t235 -258.5t334 -93.5q177 0 318 86.5t220.5 239.5t79.5 345q0 202 -84.5 366.5t-234.5 258.5t-334 94 q-176 0 -317.5 -86.5t-221.5 -240t-80 -343.5zM586 1750q0 41 29.5 70.5t70.5 29.5t70.5 -29.5t29.5 -70.5t-29.5 -70.5t-70.5 -29.5t-70.5 29.5t-29.5 70.5zM986 1750q0 41 29.5 70.5t70.5 29.5t70.5 -29.5t29.5 -70.5t-29.5 -70.5t-70.5 -29.5t-70.5 29.5t-29.5 70.5z" />
<glyph unicode="&#xd7;" horiz-adv-x="1150" d="M212 426l309 309l-309 309l53 53l309 -309l310 310l53 -53l-310 -310l310 -310l-53 -53l-310 310l-309 -309z" />
<glyph unicode="&#xd8;" horiz-adv-x="1772" d="M50 751q0 333 237 551q238 218 600 218q143 0 274 -37l66 148q11 24 31 24q6 0 11 -3l38 -24q13 -10 13 -24q0 -10 -8 -29l-56 -125q222 -96 344 -281.5t122 -417.5q0 -335 -236 -553t-599 -218q-144 0 -270 35l-68 -153q-7 -14 -24 -14q-5 0 -17 4l-39 16q-15 5 -15 20 q0 8 4 16l64 144q-225 93 -348.5 280t-123.5 423zM250 775q0 -202 85.5 -366.5t232.5 -257.5l553 1242q-121 52 -252 52q-176 0 -317.5 -86.5t-221.5 -240t-80 -343.5zM657 104q115 -49 247 -49q177 0 318 86.5t220.5 239.5t79.5 345q0 200 -83.5 363t-228.5 257z" />
<glyph unicode="&#xd9;" horiz-adv-x="2000" d="M100 1475q0 25 20 25h580q20 0 20 -25t-20 -25h-50q-150 0 -150 -150v-720q0 -114 48.5 -204t131 -145.5t186 -84.5t219.5 -29q110 0 207 31t171.5 88.5t118 146.5t43.5 197v720q0 150 -150 150h-30q-20 0 -20 25t20 25h435q20 0 20 -25t-20 -25h-30q-150 0 -150 -150 v-719q0 -183 -93.5 -321.5t-246 -209t-337.5 -70.5q-116 0 -222.5 24t-198 74t-158.5 120.5t-105.5 168.5t-38.5 214v719q0 150 -150 150h-30q-20 0 -20 25zM771 1918q0 23 17.5 38.5t43.5 15.5q65 0 97 -61l141 -273q3 -4 3 -9q0 -8 -16 -8q-17 0 -30 13l-228 224 q-28 26 -28 60z" />
<glyph unicode="&#xda;" horiz-adv-x="2000" d="M100 1475q0 25 20 25h580q20 0 20 -25t-20 -25h-50q-150 0 -150 -150v-720q0 -114 48.5 -204t131 -145.5t186 -84.5t219.5 -29q110 0 207 31t171.5 88.5t118 146.5t43.5 197v720q0 150 -150 150h-30q-20 0 -20 25t20 25h435q20 0 20 -25t-20 -25h-30q-150 0 -150 -150 v-719q0 -183 -93.5 -321.5t-246 -209t-337.5 -70.5q-116 0 -222.5 24t-198 74t-158.5 120.5t-105.5 168.5t-38.5 214v719q0 150 -150 150h-30q-20 0 -20 25zM1045 1627q0 5 3 9l141 273q32 61 97 61q26 0 43.5 -15.5t17.5 -38.5q0 -34 -28 -60l-228 -224q-13 -13 -30 -13 q-16 0 -16 8z" />
<glyph unicode="&#xdb;" horiz-adv-x="2000" d="M100 1475q0 25 20 25h580q20 0 20 -25t-20 -25h-50q-150 0 -150 -150v-720q0 -114 48.5 -204t131 -145.5t186 -84.5t219.5 -29q110 0 207 31t171.5 88.5t118 146.5t43.5 197v720q0 150 -150 150h-30q-20 0 -20 25t20 25h435q20 0 20 -25t-20 -25h-30q-150 0 -150 -150 v-719q0 -183 -93.5 -321.5t-246 -209t-337.5 -70.5q-116 0 -222.5 24t-198 74t-158.5 120.5t-105.5 168.5t-38.5 214v719q0 150 -150 150h-30q-20 0 -20 25zM685 1660v49q0 13 11 19l324 171q20 11 40 0l324 -171q11 -6 11 -19v-49q0 -13 -13 -9l-322 96q-20 6 -40 0 l-322 -96q-13 -4 -13 9z" />
<glyph unicode="&#xdc;" horiz-adv-x="2000" d="M100 1475q0 25 20 25h580q20 0 20 -25t-20 -25h-50q-150 0 -150 -150v-720q0 -114 48.5 -204t131 -145.5t186 -84.5t219.5 -29q110 0 207 31t171.5 88.5t118 146.5t43.5 197v720q0 150 -150 150h-30q-20 0 -20 25t20 25h435q20 0 20 -25t-20 -25h-30q-150 0 -150 -150 v-719q0 -183 -93.5 -321.5t-246 -209t-337.5 -70.5q-116 0 -222.5 24t-198 74t-158.5 120.5t-105.5 168.5t-38.5 214v719q0 150 -150 150h-30q-20 0 -20 25zM755 1750q0 41 29.5 70.5t70.5 29.5t70.5 -29.5t29.5 -70.5t-29.5 -70.5t-70.5 -29.5t-70.5 29.5t-29.5 70.5z M1155 1750q0 41 29.5 70.5t70.5 29.5t70.5 -29.5t29.5 -70.5t-29.5 -70.5t-70.5 -29.5t-70.5 29.5t-29.5 70.5z" />
<glyph unicode="&#xdd;" horiz-adv-x="1423" d="M50 1475q0 25 20 25h527q20 0 20 -25t-20 -25h-80q-41 0 -41 -40q0 -38 34 -106l236 -485q14 -29 28 -29t28 29l233 481q38 78 38 114t-37 36h-88q-20 0 -20 25t20 25h400q20 0 20 -25t-20 -25h-41q-85 0 -158 -150l-293 -602q-26 -52 -26 -98v-400q0 -150 150 -150h80 q20 0 20 -25t-20 -25h-660q-20 0 -20 25t20 25h80q150 0 150 150v350q0 50 -25 100l-317 650q-73 150 -147 150h-71q-20 0 -20 25zM745 1627q0 5 3 9l141 273q32 61 97 61q26 0 43.5 -15.5t17.5 -38.5q0 -34 -28 -60l-228 -224q-13 -13 -30 -13q-16 0 -16 8z" />
<glyph unicode="&#xde;" horiz-adv-x="1250" d="M100 25q0 25 20 25h30q150 0 150 150v1100q0 150 -150 150h-30q-20 0 -20 25t20 25h560q20 0 20 -25t-20 -25h-30q-150 0 -150 -148v-58q0 -46 53 -46h63q204 0 293 -29q141 -46 226 -151t85 -260q0 -59 -21.5 -116t-68 -110.5t-114 -94t-167.5 -65t-219 -24.5 q-12 0 -39.5 1t-40.5 1q-50 0 -50 -46v-104q0 -150 150 -150h30q20 0 20 -25t-20 -25h-560q-20 0 -20 25zM500 487q0 -21 9.5 -34t30.5 -18t35 -6t42 -1h3.5h3.5h4q190 0 291 90.5t101 263.5q0 166 -99 252.5t-275 88.5q-59 0 -96 -1q-50 -2 -50 -50v-585z" />
<glyph unicode="&#xdf;" horiz-adv-x="1200" d="M50 20q0 15 9 20t44 14q6 1 9 2q88 22 88 111v848q0 281 125 430t333 149q168 0 284 -94.5t116 -227.5q0 -256 -334 -376q-4 -1 -4 -3q1 -1 4 -1q55 -4 111 -24t111.5 -59.5t98 -92t69 -129.5t26.5 -165q0 -202 -128 -322t-279 -120q-52 0 -89.5 22.5t-37.5 56.5 q0 28 19.5 47t54.5 19q36 0 85 -33.5t71 -33.5q60 0 107 104t47 237q0 117 -35.5 208.5t-95.5 145t-131 80.5t-149 27q-20 0 -20 25t20 25q77 0 152 40t126 113.5t51 160.5q0 133 -77.5 222t-201.5 89q-126 0 -202.5 -105t-76.5 -285v-978q0 -89 88 -111q52 -13 58 -20 q4 -5 4 -16q0 -20 -15 -20h-418q-17 0 -17 20z" />
<glyph unicode="&#xe0;" horiz-adv-x="846" d="M70 174q0 67 51 109.5t178 98.5l194 85q39 17 39 79v121q0 83 -42 133.5t-113 50.5q-43 0 -84.5 -32t-41.5 -91q0 -10 1.5 -19.5t2.5 -15t1 -6.5q0 -11 -6 -14q-112 -54 -142 -54q-16 0 -16 34q0 83 80.5 158t161.5 96q54 13 102 13q46 0 87.5 -15.5t78 -47.5t58.5 -90 t22 -134v-439q0 -39 20.5 -59t57.5 -20q23 0 58 17l35 17q7 0 7 -19q0 -16 -4 -23.5t-16 -16.5l-96 -70q-56 -40 -105 -40q-82 0 -102 127q-1 9 -5 9q-3 0 -6 -3l-123 -91q-57 -42 -131 -42q-80 0 -141 54t-61 140zM157 1468q0 23 17.5 38.5t43.5 15.5q65 0 97 -61l141 -273 q3 -4 3 -9q0 -8 -16 -8q-17 0 -30 13l-228 224q-28 26 -28 60zM227 199q0 -50 35.5 -83.5t96.5 -33.5q42 0 95 38l52 38q26 18 26 48v190q0 22 -18 22q-6 0 -14 -3l-185 -81q-41 -18 -64.5 -54t-23.5 -81z" />
<glyph unicode="&#xe1;" horiz-adv-x="846" d="M70 174q0 67 51 109.5t178 98.5l194 85q39 17 39 79v121q0 83 -42 133.5t-113 50.5q-43 0 -84.5 -32t-41.5 -91q0 -10 1.5 -19.5t2.5 -15t1 -6.5q0 -11 -6 -14q-112 -54 -142 -54q-16 0 -16 34q0 83 80.5 158t161.5 96q54 13 102 13q46 0 87.5 -15.5t78 -47.5t58.5 -90 t22 -134v-439q0 -39 20.5 -59t57.5 -20q23 0 58 17l35 17q7 0 7 -19q0 -16 -4 -23.5t-16 -16.5l-96 -70q-56 -40 -105 -40q-82 0 -102 127q-1 9 -5 9q-3 0 -6 -3l-123 -91q-57 -42 -131 -42q-80 0 -141 54t-61 140zM227 199q0 -50 35.5 -83.5t96.5 -33.5q42 0 95 38l52 38 q26 18 26 48v190q0 22 -18 22q-6 0 -14 -3l-185 -81q-41 -18 -64.5 -54t-23.5 -81zM369 1177q0 5 3 9l141 273q32 61 97 61q26 0 43.5 -15.5t17.5 -38.5q0 -34 -28 -60l-228 -224q-13 -13 -30 -13q-16 0 -16 8z" />
<glyph unicode="&#xe2;" horiz-adv-x="847" d="M68 1210v49q0 13 11 19l324 171q20 11 40 0l324 -171q11 -6 11 -19v-49q0 -13 -13 -9l-322 96q-20 6 -40 0l-322 -96q-13 -4 -13 9zM70 174q0 67 51 109.5t178 98.5l194 85q39 17 39 79v121q0 83 -42 133.5t-113 50.5q-43 0 -84.5 -32t-41.5 -91q0 -10 1.5 -19.5t2.5 -15 t1 -6.5q0 -11 -6 -14q-112 -54 -142 -54q-16 0 -16 34q0 83 80.5 158t161.5 96q54 13 102 13q46 0 87.5 -15.5t78 -47.5t58.5 -90t22 -134v-439q0 -39 20.5 -59t57.5 -20q23 0 58 17l35 17q7 0 7 -19q0 -16 -4 -23.5t-16 -16.5l-96 -70q-56 -40 -105 -40q-82 0 -102 127 q-1 9 -5 9q-3 0 -6 -3l-123 -91q-57 -42 -131 -42q-80 0 -141 54t-61 140zM227 199q0 -50 35.5 -83.5t96.5 -33.5q42 0 95 38l52 38q26 18 26 48v190q0 22 -18 22q-6 0 -14 -3l-185 -81q-41 -18 -64.5 -54t-23.5 -81z" />
<glyph unicode="&#xe3;" horiz-adv-x="857" d="M58 1236q63 97 116 157q55 64 126 64q58 0 153 -68q94 -67 147 -67q43 0 79.5 32t77.5 95q11 17 32 3q21 -13 10 -30q-59 -90 -117 -158q-56 -63 -125 -63q-59 0 -153 67q-95 68 -147 68q-43 0 -79.5 -32t-77.5 -95q-11 -17 -32 -3q-21 13 -10 30zM70 174q0 67 51 109.5 t178 98.5l194 85q39 17 39 79v121q0 83 -42 133.5t-113 50.5q-43 0 -84.5 -32t-41.5 -91q0 -10 1.5 -19.5t2.5 -15t1 -6.5q0 -11 -6 -14q-112 -54 -142 -54q-16 0 -16 34q0 83 80.5 158t161.5 96q54 13 102 13q46 0 87.5 -15.5t78 -47.5t58.5 -90t22 -134v-439 q0 -39 20.5 -59t57.5 -20q23 0 58 17l35 17q7 0 7 -19q0 -16 -4 -23.5t-16 -16.5l-96 -70q-56 -40 -105 -40q-82 0 -102 127q-1 9 -5 9q-3 0 -6 -3l-123 -91q-57 -42 -131 -42q-80 0 -141 54t-61 140zM227 199q0 -50 35.5 -83.5t96.5 -33.5q42 0 95 38l52 38q26 18 26 48 v190q0 22 -18 22q-6 0 -14 -3l-185 -81q-41 -18 -64.5 -54t-23.5 -81z" />
<glyph unicode="&#xe4;" horiz-adv-x="846" d="M70 174q0 67 51 109.5t178 98.5l194 85q39 17 39 79v121q0 83 -42 133.5t-113 50.5q-43 0 -84.5 -32t-41.5 -91q0 -10 1.5 -19.5t2.5 -15t1 -6.5q0 -11 -6 -14q-112 -54 -142 -54q-16 0 -16 34q0 83 80.5 158t161.5 96q54 13 102 13q46 0 87.5 -15.5t78 -47.5t58.5 -90 t22 -134v-439q0 -39 20.5 -59t57.5 -20q23 0 58 17l35 17q7 0 7 -19q0 -16 -4 -23.5t-16 -16.5l-96 -70q-56 -40 -105 -40q-82 0 -102 127q-1 9 -5 9q-3 0 -6 -3l-123 -91q-57 -42 -131 -42q-80 0 -141 54t-61 140zM123 1300q0 41 29.5 70.5t70.5 29.5t70.5 -29.5 t29.5 -70.5t-29.5 -70.5t-70.5 -29.5t-70.5 29.5t-29.5 70.5zM227 199q0 -50 35.5 -83.5t96.5 -33.5q42 0 95 38l52 38q26 18 26 48v190q0 22 -18 22q-6 0 -14 -3l-185 -81q-41 -18 -64.5 -54t-23.5 -81zM523 1300q0 41 29.5 70.5t70.5 29.5t70.5 -29.5t29.5 -70.5 t-29.5 -70.5t-70.5 -29.5t-70.5 29.5t-29.5 70.5z" />
<glyph unicode="&#xe5;" horiz-adv-x="846" d="M70 174q0 67 51 109.5t178 98.5l194 85q39 17 39 79v121q0 83 -42 133.5t-113 50.5q-43 0 -84.5 -32t-41.5 -91q0 -10 1.5 -19.5t2.5 -15t1 -6.5q0 -11 -6 -14q-112 -54 -142 -54q-16 0 -16 34q0 83 80.5 158t161.5 96q54 13 102 13q46 0 87.5 -15.5t78 -47.5t58.5 -90 t22 -134v-439q0 -39 20.5 -59t57.5 -20q23 0 58 17l35 17q7 0 7 -19q0 -16 -4 -23.5t-16 -16.5l-96 -70q-56 -40 -105 -40q-82 0 -102 127q-1 9 -5 9q-3 0 -6 -3l-123 -91q-57 -42 -131 -42q-80 0 -141 54t-61 140zM203 1280q0 82 58.5 141t141.5 59t141.5 -59t58.5 -141 t-58.5 -141t-141.5 -59t-141.5 59t-58.5 141zM227 199q0 -50 35.5 -83.5t96.5 -33.5q42 0 95 38l52 38q26 18 26 48v190q0 22 -18 22q-6 0 -14 -3l-185 -81q-41 -18 -64.5 -54t-23.5 -81zM253 1279q0 -62 44 -106t106 -44t106.5 44t44.5 106t-44.5 106.5t-106.5 44.5 t-106 -44.5t-44 -106.5z" />
<glyph unicode="&#xe6;" horiz-adv-x="1350" d="M70 174q0 68 55 113q48 40 174 95l194 85q39 18 39 79v119q0 83 -42 134.5t-113 51.5q-43 0 -84.5 -32t-41.5 -91q0 -4 2.5 -21.5t2.5 -19.5q0 -11 -6 -14q-125 -54 -142 -54q-16 0 -16 34q0 81 83 160q114 107 261 107q70 0 128.5 -38.5t90.5 -103.5q1 -3 4 -3t6 3 q133 142 286 142q113 0 200 -67t115 -173q7 -22 11 -38q3 -13 12 -17q11 -8 11 -24q0 -25 -20 -25h-555q-32 0 -37 -35q-4 -32 -4 -75q0 -82 39 -164t108 -137t145 -55q159 0 276 116q14 14 32 -3q17 -18 3 -32q-180 -211 -374 -211q-77 0 -161.5 50.5t-137.5 130.5 q-9 10 -22 0l-196 -144q-50 -37 -124 -37q-75 0 -140 57q-62 56 -62 137zM227 199q0 -42 35 -80q34 -37 97 -37q44 0 95 38l91 68q34 25 27 45q-34 76 -39 159q-1 38 -33 23l-185 -81q-41 -18 -64.5 -54t-23.5 -81zM701 655q-4 -29 26 -29h349q26 0 26 25q0 80 -52.5 139 t-133.5 59q-72 0 -142.5 -63.5t-72.5 -130.5z" />
<glyph unicode="&#xe7;" horiz-adv-x="949" d="M75 441q0 204 135 341.5t342 137.5q124 0 206 -35q81 -35 81 -100q0 -25 -21.5 -41t-50.5 -16q-24 0 -48 13.5t-45 32t-42 37.5t-46 32.5t-50 13.5q-74 0 -134.5 -31.5t-98 -83.5t-58 -116.5t-20.5 -132.5q0 -158 91.5 -270.5t229.5 -112.5q188 0 305 116q15 14 32 -3 t3 -32q-78 -85 -149.5 -134.5t-154.5 -67.5q-45 -10 -85 -61l-50 -64q-14 -18 7 -24q62 -18 101 -63.5t39 -110.5q0 -86 -84.5 -143.5t-177.5 -57.5q-137 0 -137 51q0 22 15.5 38t39.5 16q22 0 61 -27.5t62 -27.5q43 0 69.5 35.5t26.5 102.5q0 54 -36 92t-85 38 q-28 0 -12 21l101 129q15 17 8.5 29.5t-17.5 18.5t-25 9q-150 33 -239 158t-89 293z" />
<glyph unicode="&#xe8;" horiz-adv-x="974" d="M75 430q0 131 56 242.5t160 179.5t233 68q143 0 231.5 -72t119.5 -206q2 -8 13 -18t11 -23q0 -25 -20 -25h-613q-19 0 -28 -12q-13 -17 -13 -98q0 -145 93.5 -250.5t230.5 -105.5q99 0 167 25t135 91q6 6 13 6q9 0 18.5 -9.5t9.5 -18.5q0 -7 -6 -13 q-89 -104 -182.5 -157.5t-208.5 -53.5q-121 0 -218 61.5t-149.5 164t-52.5 224.5zM255 1468q0 23 17.5 38.5t43.5 15.5q65 0 97 -61l141 -273q3 -4 3 -9q0 -8 -16 -8q-17 0 -30 13l-228 224q-28 26 -28 60zM261 647q0 -21 27 -21h387q26 0 26 25q0 92 -54.5 150.5 t-147.5 58.5q-58 0 -106.5 -26.5t-75.5 -63.5t-41.5 -70t-14.5 -53z" />
<glyph unicode="&#xe9;" horiz-adv-x="974" d="M75 430q0 131 56 242.5t160 179.5t233 68q143 0 231.5 -72t119.5 -206q2 -8 13 -18t11 -23q0 -25 -20 -25h-613q-19 0 -28 -12q-13 -17 -13 -98q0 -145 93.5 -250.5t230.5 -105.5q99 0 167 25t135 91q6 6 13 6q9 0 18.5 -9.5t9.5 -18.5q0 -7 -6 -13 q-89 -104 -182.5 -157.5t-208.5 -53.5q-121 0 -218 61.5t-149.5 164t-52.5 224.5zM261 647q0 -21 27 -21h387q26 0 26 25q0 92 -54.5 150.5t-147.5 58.5q-58 0 -106.5 -26.5t-75.5 -63.5t-41.5 -70t-14.5 -53zM457 1177q0 5 3 9l141 273q32 61 97 61q26 0 43.5 -15.5 t17.5 -38.5q0 -34 -28 -60l-228 -224q-13 -13 -30 -13q-16 0 -16 8z" />
<glyph unicode="&#xea;" horiz-adv-x="974" d="M75 430q0 131 56 242.5t160 179.5t233 68q143 0 231.5 -72t119.5 -206q2 -8 13 -18t11 -23q0 -25 -20 -25h-613q-19 0 -28 -12q-13 -17 -13 -98q0 -145 93.5 -250.5t230.5 -105.5q99 0 167 25t135 91q6 6 13 6q9 0 18.5 -9.5t9.5 -18.5q0 -7 -6 -13 q-89 -104 -182.5 -157.5t-208.5 -53.5q-121 0 -218 61.5t-149.5 164t-52.5 224.5zM155 1210v49q0 13 11 19l324 171q20 11 40 0l324 -171q11 -6 11 -19v-49q0 -13 -13 -9l-322 96q-20 6 -40 0l-322 -96q-13 -4 -13 9zM261 647q0 -21 27 -21h387q26 0 26 25q0 92 -54.5 150.5 t-147.5 58.5q-58 0 -106.5 -26.5t-75.5 -63.5t-41.5 -70t-14.5 -53z" />
<glyph unicode="&#xeb;" horiz-adv-x="974" d="M75 430q0 131 56 242.5t160 179.5t233 68q143 0 231.5 -72t119.5 -206q2 -8 13 -18t11 -23q0 -25 -20 -25h-613q-19 0 -28 -12q-13 -17 -13 -98q0 -145 93.5 -250.5t230.5 -105.5q99 0 167 25t135 91q6 6 13 6q9 0 18.5 -9.5t9.5 -18.5q0 -7 -6 -13 q-89 -104 -182.5 -157.5t-208.5 -53.5q-121 0 -218 61.5t-149.5 164t-52.5 224.5zM208 1300q0 41 29.5 70.5t70.5 29.5t70.5 -29.5t29.5 -70.5t-29.5 -70.5t-70.5 -29.5t-70.5 29.5t-29.5 70.5zM261 647q0 -21 27 -21h387q26 0 26 25q0 92 -54.5 150.5t-147.5 58.5 q-58 0 -106.5 -26.5t-75.5 -63.5t-41.5 -70t-14.5 -53zM608 1300q0 41 29.5 70.5t70.5 29.5t70.5 -29.5t29.5 -70.5t-29.5 -70.5t-70.5 -29.5t-70.5 29.5t-29.5 70.5z" />
<glyph unicode="&#xec;" horiz-adv-x="550" d="M4 1468q0 23 17.5 38.5t43.5 15.5q65 0 97 -61l141 -273q3 -4 3 -9q0 -8 -16 -8q-17 0 -30 13l-228 224q-28 26 -28 60zM50 20q0 15 10.5 21t51.5 15q47 13 67.5 39.5t20.5 71.5v527q0 39 -44 56l-85 25q-18 5 -18 25q0 21 16 28l217 98q64 28 64 -27v-732 q0 -45 20.5 -71.5t67.5 -39.5q41 -9 51.5 -15t10.5 -21q0 -20 -15 -20h-418q-17 0 -17 20z" />
<glyph unicode="&#xed;" horiz-adv-x="550" d="M50 20q0 15 10.5 21t51.5 15q47 13 67.5 39.5t20.5 71.5v527q0 39 -44 56l-85 25q-18 5 -18 25q0 21 16 28l217 98q64 28 64 -27v-732q0 -45 20.5 -71.5t67.5 -39.5q41 -9 51.5 -15t10.5 -21q0 -20 -15 -20h-418q-17 0 -17 20zM211 1177q0 5 3 9l141 273q32 61 97 61 q26 0 43.5 -15.5t17.5 -38.5q0 -34 -28 -60l-228 -224q-13 -13 -30 -13q-16 0 -16 8z" />
<glyph unicode="&#xee;" horiz-adv-x="550" d="M-80 1210v49q0 13 11 19l324 171q20 11 40 0l324 -171q11 -6 11 -19v-49q0 -13 -13 -9l-322 96q-20 6 -40 0l-322 -96q-13 -4 -13 9zM50 20q0 15 10.5 21t51.5 15q47 13 67.5 39.5t20.5 71.5v527q0 39 -44 56l-85 25q-18 5 -18 25q0 21 16 28l217 98q64 28 64 -27v-732 q0 -45 20.5 -71.5t67.5 -39.5q41 -9 51.5 -15t10.5 -21q0 -20 -15 -20h-418q-17 0 -17 20z" />
<glyph unicode="&#xef;" horiz-adv-x="550" d="M-25 1300q0 41 29.5 70.5t70.5 29.5t70.5 -29.5t29.5 -70.5t-29.5 -70.5t-70.5 -29.5t-70.5 29.5t-29.5 70.5zM50 20q0 15 10.5 21t51.5 15q47 13 67.5 39.5t20.5 71.5v527q0 39 -44 56l-85 25q-18 5 -18 25q0 21 16 28l217 98q64 28 64 -27v-732q0 -45 20.5 -71.5 t67.5 -39.5q41 -9 51.5 -15t10.5 -21q0 -20 -15 -20h-418q-17 0 -17 20zM375 1300q0 41 29.5 70.5t70.5 29.5t70.5 -29.5t29.5 -70.5t-29.5 -70.5t-70.5 -29.5t-70.5 29.5t-29.5 70.5z" />
<glyph unicode="&#xf0;" horiz-adv-x="1100" d="M74 450q0 199 132.5 334.5t345.5 135.5q90 0 166 -26q8 -3 14 -3q10 0 10 18q0 10 -8 26q-50 96 -159 191h-305q-20 0 -20 25t20 25h243q-113 84 -261 159q-13 4 -13 16t8 21.5t16 9.5q3 0 9 -2q203 -91 365 -204h283q20 0 20 -25t-20 -25h-218q164 -134 245 -290 t83 -347v-8q0 -97 -34.5 -187.5t-95.5 -160t-152 -111.5t-196 -42q-212 0 -345 135.5t-133 334.5zM235 396q0 -151 77.5 -252t197.5 -101q93 0 176 63t133 170.5t50 229.5q0 150 -77.5 250.5t-196.5 100.5q-69 0 -135 -37.5t-115.5 -99.5t-79.5 -147.5t-30 -176.5z" />
<glyph unicode="&#xf1;" horiz-adv-x="1200" d="M50 20q0 14 8 19t39 13q9 3 15 4q88 23 88 111v527q0 44 -44 56l-85 25q-18 5 -18 25q0 21 16 28l217 98q21 9 35 9q29 0 29 -36v-72q0 -24 17 -24q11 0 22 6l134 70q78 41 155 41q94 0 160 -56t96 -145t30 -203q0 -104 -4 -212.5t-4 -144.5q0 -62 29.5 -82.5 t120.5 -35.5q44 -8 44 -21q0 -20 -15 -20h-468q-17 0 -17 20q0 15 10 20.5t52 15.5q47 12 67 39t24 79q11 167 11 302q0 163 -55.5 243.5t-189.5 80.5q-56 0 -107 -22l-92 -42q-20 -9 -20 -32v-537q0 -88 88 -111q6 -1 15 -4q31 -8 39 -13t8 -19q0 -20 -15 -20h-418 q-17 0 -17 20zM191 1236q63 97 116 157q55 64 126 64q58 0 153 -68q94 -67 147 -67q43 0 79.5 32t77.5 95q11 17 32 3q21 -13 10 -30q-59 -90 -117 -158q-55 -63 -125 -63q-59 0 -153 67q-95 68 -147 68q-43 0 -79.5 -32t-77.5 -95q-11 -17 -32 -3q-21 13 -10 30z" />
<glyph unicode="&#xf2;" horiz-adv-x="1106" d="M75 450q0 199 132.5 334.5t345.5 135.5t345.5 -135.5t132.5 -334.5t-133 -334.5t-345 -135.5t-345 135.5t-133 334.5zM231 497q0 -95 31 -182t81 -148t115 -97t132 -36q125 0 205 107.5t80 260.5q0 95 -31 182.5t-81 148.5t-115 97t-132 36q-125 0 -205 -107.5 t-80 -261.5zM290 1468q0 23 17.5 38.5t43.5 15.5q65 0 97 -61l141 -273q3 -4 3 -9q0 -8 -16 -8q-17 0 -30 13l-228 224q-28 26 -28 60z" />
<glyph unicode="&#xf3;" horiz-adv-x="1106" d="M75 450q0 199 132.5 334.5t345.5 135.5t345.5 -135.5t132.5 -334.5t-133 -334.5t-345 -135.5t-345 135.5t-133 334.5zM231 497q0 -95 31 -182t81 -148t115 -97t132 -36q125 0 205 107.5t80 260.5q0 95 -31 182.5t-81 148.5t-115 97t-132 36q-125 0 -205 -107.5 t-80 -261.5zM481 1177q0 5 3 9l141 273q32 61 97 61q26 0 43.5 -15.5t17.5 -38.5q0 -34 -28 -60l-228 -224q-13 -13 -30 -13q-16 0 -16 8z" />
<glyph unicode="&#xf4;" horiz-adv-x="1106" d="M75 450q0 199 132.5 334.5t345.5 135.5t345.5 -135.5t132.5 -334.5t-133 -334.5t-345 -135.5t-345 135.5t-133 334.5zM198 1210v49q0 13 11 19l324 171q20 11 40 0l324 -171q11 -6 11 -19v-49q0 -13 -13 -9l-322 96q-20 6 -40 0l-322 -96q-13 -4 -13 9zM231 497 q0 -95 31 -182t81 -148t115 -97t132 -36q125 0 205 107.5t80 260.5q0 95 -31 182.5t-81 148.5t-115 97t-132 36q-125 0 -205 -107.5t-80 -261.5z" />
<glyph unicode="&#xf5;" horiz-adv-x="1106" d="M75 450q0 199 132.5 334.5t345.5 135.5t345.5 -135.5t132.5 -334.5t-133 -334.5t-345 -135.5t-345 135.5t-133 334.5zM183 1236q63 97 116 157q55 64 126 64q58 0 153 -68q94 -67 147 -67q43 0 79.5 32t77.5 95q11 17 32 3q21 -13 10 -30q-59 -90 -117 -158 q-55 -63 -125 -63q-59 0 -153 67q-95 68 -147 68q-43 0 -79.5 -32t-77.5 -95q-11 -17 -32 -3q-21 13 -10 30zM231 497q0 -95 31 -182t81 -148t115 -97t132 -36q125 0 205 107.5t80 260.5q0 95 -31 182.5t-81 148.5t-115 97t-132 36q-125 0 -205 -107.5t-80 -261.5z" />
<glyph unicode="&#xf6;" horiz-adv-x="1106" d="M75 450q0 199 132.5 334.5t345.5 135.5t345.5 -135.5t132.5 -334.5t-133 -334.5t-345 -135.5t-345 135.5t-133 334.5zM231 497q0 -95 31 -182t81 -148t115 -97t132 -36q125 0 205 107.5t80 260.5q0 95 -31 182.5t-81 148.5t-115 97t-132 36q-125 0 -205 -107.5 t-80 -261.5zM253 1300q0 41 29.5 70.5t70.5 29.5t70.5 -29.5t29.5 -70.5t-29.5 -70.5t-70.5 -29.5t-70.5 29.5t-29.5 70.5zM653 1300q0 41 29.5 70.5t70.5 29.5t70.5 -29.5t29.5 -70.5t-29.5 -70.5t-70.5 -29.5t-70.5 29.5t-29.5 70.5z" />
<glyph unicode="&#xf7;" horiz-adv-x="1150" d="M100 698v75h950v-75h-950zM475 267q0 41 29.5 70.5t70.5 29.5t70.5 -29.5t29.5 -70.5t-29.5 -70.5t-70.5 -29.5t-70.5 29.5t-29.5 70.5zM475 1187q0 41 29.5 70.5t70.5 29.5t70.5 -29.5t29.5 -70.5t-29.5 -70.5t-70.5 -29.5t-70.5 29.5t-29.5 70.5z" />
<glyph unicode="&#xf8;" horiz-adv-x="1100" d="M73 452q0 206 136.5 341.5t342.5 135.5q193 0 329 -126l39 40q6 6 13 6q9 0 19 -10t10 -19q0 -7 -6 -13l-40 -40q113 -132 113 -315q0 -207 -135 -343t-342 -136q-186 0 -318 113l-46 -46q-6 -6 -13 -6q-8 0 -18 10t-10 18q0 7 6 13l45 45q-125 133 -125 332zM234 513 q0 -157 70 -287l473 474q-50 76 -116.5 119t-138.5 43q-126 0 -207 -98.5t-81 -250.5zM331 183q49 -71 115 -111.5t136 -40.5q126 0 206 99t80 251q0 147 -65 274z" />
<glyph unicode="&#xf9;" horiz-adv-x="1164" d="M53 800q0 21 16 28l217 98q23 10 36 10q28 0 28 -37v-679q0 -120 200 -120q91 0 152 26l92 40q20 9 20 32v496q0 44 -44 56l-85 25q-18 5 -18 25q0 21 16 28l217 98q23 10 35 10q29 0 29 -37v-679q0 -44 44 -56l85 -25q18 -5 18 -25q0 -21 -16 -28l-217 -98 q-23 -10 -35 -10q-29 0 -29 37v58q0 25 -17 25q-9 0 -22 -7l-134 -70q-79 -41 -182 -41q-259 0 -259 177v537q0 44 -44 56l-85 25q-18 5 -18 25zM298 1468q0 23 17.5 38.5t43.5 15.5q65 0 97 -61l141 -273q3 -4 3 -9q0 -8 -16 -8q-17 0 -30 13l-228 224q-28 26 -28 60z" />
<glyph unicode="&#xfa;" horiz-adv-x="1164" d="M53 800q0 21 16 28l217 98q23 10 36 10q28 0 28 -37v-679q0 -120 200 -120q91 0 152 26l92 40q20 9 20 32v496q0 44 -44 56l-85 25q-18 5 -18 25q0 21 16 28l217 98q23 10 35 10q29 0 29 -37v-679q0 -44 44 -56l85 -25q18 -5 18 -25q0 -21 -16 -28l-217 -98 q-23 -10 -35 -10q-29 0 -29 37v58q0 25 -17 25q-9 0 -22 -7l-134 -70q-79 -41 -182 -41q-259 0 -259 177v537q0 44 -44 56l-85 25q-18 5 -18 25zM536 1177q0 5 3 9l141 273q32 61 97 61q26 0 43.5 -15.5t17.5 -38.5q0 -34 -28 -60l-228 -224q-13 -13 -30 -13q-16 0 -16 8z " />
<glyph unicode="&#xfb;" horiz-adv-x="1164" d="M53 800q0 21 16 28l217 98q23 10 36 10q28 0 28 -37v-679q0 -120 200 -120q91 0 152 26l92 40q20 9 20 32v496q0 44 -44 56l-85 25q-18 5 -18 25q0 21 16 28l217 98q23 10 35 10q29 0 29 -37v-679q0 -44 44 -56l85 -25q18 -5 18 -25q0 -21 -16 -28l-217 -98 q-23 -10 -35 -10q-29 0 -29 37v58q0 25 -17 25q-9 0 -22 -7l-134 -70q-79 -41 -182 -41q-259 0 -259 177v537q0 44 -44 56l-85 25q-18 5 -18 25zM189 1210v49q0 13 11 19l324 171q20 11 40 0l324 -171q11 -6 11 -19v-49q0 -13 -13 -9l-322 96q-20 6 -40 0l-322 -96 q-13 -4 -13 9z" />
<glyph unicode="&#xfc;" horiz-adv-x="1164" d="M53 800q0 21 16 28l217 98q23 10 36 10q28 0 28 -37v-679q0 -120 200 -120q91 0 152 26l92 40q20 9 20 32v496q0 44 -44 56l-85 25q-18 5 -18 25q0 21 16 28l217 98q23 10 35 10q29 0 29 -37v-679q0 -44 44 -56l85 -25q18 -5 18 -25q0 -21 -16 -28l-217 -98 q-23 -10 -35 -10q-29 0 -29 37v58q0 25 -17 25q-9 0 -22 -7l-134 -70q-79 -41 -182 -41q-259 0 -259 177v537q0 44 -44 56l-85 25q-18 5 -18 25zM252 1300q0 41 29.5 70.5t70.5 29.5t70.5 -29.5t29.5 -70.5t-29.5 -70.5t-70.5 -29.5t-70.5 29.5t-29.5 70.5zM652 1300 q0 41 29.5 70.5t70.5 29.5t70.5 -29.5t29.5 -70.5t-29.5 -70.5t-70.5 -29.5t-70.5 29.5t-29.5 70.5z" />
<glyph unicode="&#xfd;" horiz-adv-x="1086" d="M10 880q0 20 15 20h364q17 0 17 -20q0 -15 -10 -20.5t-52 -15.5q-34 -9 -34 -32q0 -9 7 -23l279 -573q10 -22 25 -22t24 22l230 568q5 11 5 24q0 27 -34 36q-42 10 -52 15.5t-10 20.5q0 20 15 20h260q17 0 17 -20q0 -15 -10 -20.5t-52 -15.5q-44 -11 -64.5 -35.5 t-41.5 -75.5l-542 -1341q-21 -52 -59 -82t-75 -30q-36 0 -57 21.5t-21 57.5q0 24 19 44t49 29q76 23 112 64.5t74 133.5l127 313q6 15 6 29q0 13 -6 27l-358 734q-3 6 -10 21t-9.5 19.5t-9 16t-10.5 15.5l-11.5 11.5t-14.5 11.5t-17.5 8.5t-22.5 7.5q-42 10 -52 15.5 t-10 20.5zM582 1177q0 5 3 9l141 273q32 61 97 61q26 0 43.5 -15.5t17.5 -38.5q0 -34 -28 -60l-228 -224q-13 -13 -30 -13q-16 0 -16 8z" />
<glyph unicode="&#xfe;" horiz-adv-x="1099" d="M50 -680q0 15 10 20.5t52 15.5q47 12 67.5 39t20.5 72v1902q0 44 -44 56l-85 25q-18 4 -18 25t16 28l217 98q64 30 64 -27v-747q0 -38 39 -18l134 70q79 41 155 41q106 0 187 -67t120 -163.5t39 -200.5q0 -226 -133.5 -367.5t-357.5 -141.5q-47 0 -161 31 q-11 3 -16.5 -4.5t-5.5 -24.5v-515q0 -45 20.5 -71t67.5 -40q16 -5 68 -14q44 -8 44 -22q0 -20 -15 -20h-468q-17 0 -17 20zM350 270q0 -96 73 -154t168 -58q86 0 152.5 55t98.5 136.5t32 172.5q0 103 -32 185.5t-102.5 135.5t-170.5 53q-56 0 -107 -22l-92 -40 q-20 -8 -20 -28v-436z" />
<glyph unicode="&#xff;" horiz-adv-x="1085" d="M10 880q0 20 15 20h364q17 0 17 -20q0 -15 -10 -20.5t-52 -15.5q-34 -9 -34 -32q0 -9 7 -23l279 -573q10 -22 25 -22t24 22l230 568q5 11 5 24q0 27 -34 36q-42 10 -52 15.5t-10 20.5q0 20 15 20h260q17 0 17 -20q0 -15 -10 -20.5t-52 -15.5q-44 -11 -64.5 -35.5 t-41.5 -75.5l-542 -1341q-21 -52 -59 -82t-75 -30q-36 0 -57 21.5t-21 57.5q0 24 19 44t49 29q76 23 112 64.5t74 133.5l127 313q6 15 6 29q0 13 -6 27l-358 734q-3 6 -10 21t-9.5 19.5t-9 16t-10.5 15.5l-11.5 11.5t-14.5 11.5t-17.5 8.5t-22.5 7.5q-42 10 -52 15.5 t-10 20.5zM299 1300q0 41 29.5 70.5t70.5 29.5t70.5 -29.5t29.5 -70.5t-29.5 -70.5t-70.5 -29.5t-70.5 29.5t-29.5 70.5zM699 1300q0 41 29.5 70.5t70.5 29.5t70.5 -29.5t29.5 -70.5t-29.5 -70.5t-70.5 -29.5t-70.5 29.5t-29.5 70.5z" />
<glyph unicode="&#x152;" horiz-adv-x="2150" d="M100 751q0 333 237 551q238 218 598 218q156 0 335.5 -10t373.5 -10h303q32 0 35 -29l26 -302q0 -22 -27 -22q-21 0 -22 18q-19 122 -30 151q-39 109 -222 109h-193q-50 0 -50 -50v-510q0 -50 50 -50h186q150 0 150 150v30q0 20 25 20t25 -20v-435q0 -20 -25 -20t-25 20 v30q0 150 -150 150h-186q-50 0 -50 -50v-465q0 -150 150 -150h175q181 0 222 107q15 51 30 153q3 18 26 18t23 -22l-26 -302q-3 -29 -35 -29h-385q-198 0 -384 -10t-325 -10q-363 0 -599 218t-236 553zM295 702q0 -184 83.5 -331.5t231.5 -230t332 -82.5q130 0 200 17 t96 51.5t26 98.5v1152q0 50 -50 56q-107 14 -195 14q-295 0 -471.5 -150.5t-232.5 -413.5q-20 -90 -20 -181z" />
<glyph unicode="&#x153;" horiz-adv-x="1779" d="M75 450q0 199 132.5 334.5t345.5 135.5q131 0 234 -54t166 -148q60 94 155 148t211 54q132 0 219 -62t122 -178q4 -12 10 -38q3 -12 13 -17q11 -8 11 -24q0 -25 -20 -25h-613q-32 0 -37 -35q-4 -32 -4 -75q0 -145 93.5 -250.5t230.5 -105.5q99 0 167 25t135 91 q14 14 32 -3q17 -18 3 -32q-89 -104 -182.5 -157.5t-208.5 -53.5q-111 0 -200.5 50.5t-145.5 138.5q-63 -88 -164 -138.5t-227 -50.5q-212 0 -345 135.5t-133 334.5zM236 506q0 -122 50 -229.5t133 -170.5t176 -63q120 0 197.5 101t77.5 252q0 91 -30 176.5t-79.5 147.5 t-115.5 99.5t-135 37.5q-119 0 -196.5 -100.5t-77.5 -250.5zM1037 655q-4 -29 26 -29h407q26 0 26 25q0 90 -58.5 144.5t-153.5 54.5q-91 0 -164 -56.5t-83 -138.5z" />
<glyph unicode="&#x178;" horiz-adv-x="1423" d="M50 1475q0 25 20 25h527q20 0 20 -25t-20 -25h-80q-41 0 -41 -40q0 -38 34 -106l236 -485q14 -29 28 -29t28 29l233 481q38 78 38 114t-37 36h-88q-20 0 -20 25t20 25h400q20 0 20 -25t-20 -25h-41q-85 0 -158 -150l-293 -602q-26 -52 -26 -98v-400q0 -150 150 -150h80 q20 0 20 -25t-20 -25h-660q-20 0 -20 25t20 25h80q150 0 150 150v350q0 50 -25 100l-317 650q-73 150 -147 150h-71q-20 0 -20 25zM445 1750q0 41 29.5 70.5t70.5 29.5t70.5 -29.5t29.5 -70.5t-29.5 -70.5t-70.5 -29.5t-70.5 29.5t-29.5 70.5zM845 1750q0 41 29.5 70.5 t70.5 29.5t70.5 -29.5t29.5 -70.5t-29.5 -70.5t-70.5 -29.5t-70.5 29.5t-29.5 70.5z" />
<glyph unicode="&#x2c6;" horiz-adv-x="900" d="M100 1210v49q0 13 11 19l324 171q20 11 40 0l324 -171q11 -6 11 -19v-49q0 -13 -13 -9l-322 96q-20 6 -40 0l-322 -96q-13 -4 -13 9z" />
<glyph unicode="&#x2dc;" horiz-adv-x="713" d="M55 1236q63 97 116 157q55 64 126 64q58 0 153 -68q94 -67 147 -67q43 0 79.5 32t77.5 95q11 17 32 3q21 -13 10 -30q-59 -90 -117 -158q-55 -63 -125 -63q-59 0 -153 67q-95 68 -147 68q-43 0 -79.5 -32t-77.5 -95q-11 -17 -32 -3q-21 13 -10 30z" />
<glyph unicode="&#x2000;" horiz-adv-x="986" />
<glyph unicode="&#x2001;" horiz-adv-x="1972" />
<glyph unicode="&#x2002;" horiz-adv-x="986" />
<glyph unicode="&#x2003;" horiz-adv-x="1972" />
<glyph unicode="&#x2004;" horiz-adv-x="657" />
<glyph unicode="&#x2005;" horiz-adv-x="493" />
<glyph unicode="&#x2006;" horiz-adv-x="328" />
<glyph unicode="&#x2007;" horiz-adv-x="328" />
<glyph unicode="&#x2008;" horiz-adv-x="246" />
<glyph unicode="&#x2009;" horiz-adv-x="394" />
<glyph unicode="&#x200a;" horiz-adv-x="109" />
<glyph unicode="&#x2010;" horiz-adv-x="650" d="M50 593v125q0 25 23 28l501 62q26 3 26 -23v-124q0 -27 -26 -30l-495 -61q-29 -3 -29 23z" />
<glyph unicode="&#x2011;" horiz-adv-x="650" d="M50 593v125q0 25 23 28l501 62q26 3 26 -23v-124q0 -27 -26 -30l-495 -61q-29 -3 -29 23z" />
<glyph unicode="&#x2012;" horiz-adv-x="650" d="M50 593v125q0 25 23 28l501 62q26 3 26 -23v-124q0 -27 -26 -30l-495 -61q-29 -3 -29 23z" />
<glyph unicode="&#x2013;" horiz-adv-x="1286" d="M130 564v96h1026v-96h-1026z" />
<glyph unicode="&#x2014;" horiz-adv-x="1810" d="M130 564v96h1550v-96h-1550z" />
<glyph unicode="&#x2018;" d="M120 1276q0 140 141 276q48 46 78 48q15 0 15 -24q0 -12 -12 -22q-142 -112 -142 -200q0 -23 12.5 -32.5t40.5 -9.5q41 0 70.5 -29.5t29.5 -70.5q0 -42 -30 -71t-78 -29q-50 0 -87.5 42t-37.5 122z" />
<glyph unicode="&#x2019;" d="M146 1136q0 12 12 22q142 112 142 200q0 23 -12.5 32.5t-40.5 9.5q-41 0 -70.5 29.5t-29.5 70.5q0 42 30 71t78 29q50 0 87.5 -42t37.5 -122q0 -140 -141 -276q-48 -46 -78 -48q-15 0 -15 24z" />
<glyph unicode="&#x201a;" horiz-adv-x="550" d="M146 -274q0 12 12 22q142 112 142 200q0 23 -12.5 32.5t-40.5 9.5q-41 0 -70.5 29.5t-29.5 70.5q0 42 30 71t78 29q50 0 87.5 -42t37.5 -122q0 -140 -141 -276q-48 -46 -78 -48q-15 0 -15 24z" />
<glyph unicode="&#x201c;" horiz-adv-x="850" d="M156 1436q0 86 39 125q41 39 86 39q48 0 78 -29t30 -71q0 -41 -29.5 -70.5t-70.5 -29.5q-28 0 -40.5 -9.5t-12.5 -32.5q0 -88 142 -200q12 -10 12 -22q0 -24 -15 -24q-26 0 -78 48q-87 85 -114 158q-27 72 -27 118zM505 1436q0 86 39 125q40 39 86 39q48 0 78 -29t30 -71 q0 -41 -29.5 -70.5t-70.5 -29.5q-28 0 -40.5 -9.5t-12.5 -32.5q0 -88 142 -200q12 -10 12 -22q0 -24 -15 -24q-26 0 -78 48q-87 85 -114 158q-27 72 -27 118z" />
<glyph unicode="&#x201d;" horiz-adv-x="899" d="M139 1136q0 12 12 22q142 112 142 200q0 23 -12.5 32.5t-40.5 9.5q-41 0 -70.5 29.5t-29.5 70.5q0 42 30 71t78 29q46 0 86 -39q39 -39 39 -125q0 -46 -27 -118q-27 -73 -114 -158q-52 -48 -78 -48q-15 0 -15 24zM488 1136q0 12 12 22q142 112 142 200q0 23 -12.5 32.5 t-40.5 9.5q-41 0 -70.5 29.5t-29.5 70.5q0 42 30 71t78 29q45 0 86 -39q39 -39 39 -125q0 -46 -27 -118q-27 -73 -114 -158q-52 -48 -78 -48q-15 0 -15 24z" />
<glyph unicode="&#x201e;" horiz-adv-x="899" d="M149 -274q0 12 12 22q142 112 142 200q0 23 -12.5 32.5t-40.5 9.5q-41 0 -70.5 29.5t-29.5 70.5q0 42 30 71t78 29q61 0 93 -47t32 -117q0 -46 -27 -118q-19 -51 -86.5 -128.5t-105.5 -77.5q-15 0 -15 24zM522 -274q0 12 12 22q142 112 142 200q0 23 -12.5 32.5 t-40.5 9.5q-41 0 -70.5 29.5t-29.5 70.5q0 42 30 71t78 29q61 0 93 -47t32 -117q0 -46 -27 -118q-19 -51 -86.5 -128.5t-105.5 -77.5q-15 0 -15 24z" />
<glyph unicode="&#x2022;" horiz-adv-x="725" d="M112 677q0 103 74 177t177 74q102 0 176.5 -74.5t74.5 -176.5q0 -103 -74 -177t-177 -74q-104 0 -177.5 73.5t-73.5 177.5z" />
<glyph unicode="&#x2026;" horiz-adv-x="1400" d="M150 90q0 41 29.5 70.5t70.5 29.5t70.5 -29.5t29.5 -70.5t-29.5 -70.5t-70.5 -29.5t-70.5 29.5t-29.5 70.5zM600 90q0 41 29.5 70.5t70.5 29.5t70.5 -29.5t29.5 -70.5t-29.5 -70.5t-70.5 -29.5t-70.5 29.5t-29.5 70.5zM1050 90q0 41 29.5 70.5t70.5 29.5t70.5 -29.5 t29.5 -70.5t-29.5 -70.5t-70.5 -29.5t-70.5 29.5t-29.5 70.5z" />
<glyph unicode="&#x202f;" horiz-adv-x="394" />
<glyph unicode="&#x2039;" d="M59 444q-17 20 0 40l308 359q9 11 22 8l44 -10q12 -3 5 -16l-202 -341q-12 -20 0 -40l202 -341q7 -13 -5 -16l-44 -10q-13 -3 -22 8z" />
<glyph unicode="&#x203a;" d="M54 103l202 341q12 20 0 40l-202 341q-7 13 5 16l44 10q13 3 22 -8l308 -359q17 -20 0 -40l-308 -359q-9 -11 -22 -8l-44 10q-12 3 -5 16z" />
<glyph unicode="&#x205f;" horiz-adv-x="493" />
<glyph unicode="&#x20ac;" horiz-adv-x="1550" d="M50 751q0 333 237 551q239 218 608 218q63 0 151 -19t140 -39q90 -34 139 -34q8 0 28.5 8t30.5 8q20 0 22 -19l23 -321q2 -23 -26 -23q-14 0 -21.5 11t-11 29t-5.5 22q-77 152 -205 227.5t-272 75.5q-215 0 -375 -114t-231 -307q-4 -11 -4 -21q0 -29 38 -29h764 q20 0 20 -20v-37q0 -18 -20 -18h-780q-34 0 -45 -26.5t-11 -79.5q0 -26 2 -44.5t7.5 -37t18.5 -28t32 -9.5h776q20 0 20 -20v-37q0 -18 -20 -18h-761q-40 0 -40 -33q0 -11 2 -17q71 -220 236.5 -357.5t370.5 -137.5q197 0 340.5 84.5t218.5 257.5q5 11 17 11q13 0 22 -7.5 t9 -15.5q0 -2 -2 -8l-146 -327q-5 -11 -16 -11q-5 0 -7 1q-29 8 -59 8q-34 0 -93.5 -17t-135 -34t-149.5 -17q-373 0 -605 214t-232 557z" />
<glyph unicode="&#x2122;" horiz-adv-x="1800" d="M52 1297l17 166q1 9 11 9q16 0 16 -7q3 -15 33 -15h546q31 0 32 15q2 7 17 7q10 0 10 -9l18 -166q0 -12 -14 -12q-11 0 -11 9l-4 40q-4 35 -23 50.5t-58 15.5h-165q-25 0 -25 -25v-575q0 -75 75 -75h40q10 0 10 -13q0 -12 -10 -12h-330q-10 0 -10 12q0 13 10 13h40 q75 0 75 75v575q0 25 -25 25h-165q-40 0 -59 -15.5t-22 -50.5l-4 -40q-1 -9 -14 -9q-11 0 -11 12zM768 712q0 13 10 13h15q38 0 56 17.5t19 57.5l28 532v10q1 9 1 13q0 32 -19 51t-56 19h-15q-10 0 -10 13q0 12 10 12h157q9 0 12 -8l266 -596q3 -9 11 -9q7 0 11 10l266 595 q3 8 12 8h157q10 0 10 -12q0 -13 -10 -13h-15q-37 0 -56 -19.5t-19 -52.5v-25l29 -528q2 -40 19.5 -57.5t55.5 -17.5h15q10 0 10 -13q0 -12 -10 -12h-258q-10 0 -10 12q0 13 10 13h18q50 0 50 46v17l-1 13l-25 496q0 7 -2 7q-1 0 -4 -6l-262 -588q-4 -10 -16 -10h-20 q-10 0 -16 11l-253 569q-3 7 -6 7q-2 0 -3 -10l-25 -485q0 -1 -0.5 -9.5t-0.5 -10.5q0 -47 50 -47h19q10 0 10 -13q0 -12 -10 -12h-195q-10 0 -10 12z" />
<glyph unicode="&#x25fc;" horiz-adv-x="900" d="M0 0v900h900v-900h-900z" />
</font>
</defs>
</svg>
